<svg width="41" height="41" viewBox="0 0 41 41" fill="none" xmlns="http://www.w3.org/2000/svg">
<g clip-path="url(#clip0_1_117)">
<g clip-path="url(#clip1_1_117)">
<path d="M20.5 40.5C31.5457 40.5 40.5 31.5457 40.5 20.5C40.5 9.4543 31.5457 0.5 20.5 0.5C9.4543 0.5 0.5 9.4543 0.5 20.5C0.5 31.5457 9.4543 40.5 20.5 40.5Z" fill="white"/>
<mask id="mask0_1_117" style="mask-type:luminance" maskUnits="userSpaceOnUse" x="10" y="10" width="21" height="21">
<path d="M30.5 10.5H10.5V30.5H30.5V10.5Z" fill="white"/>
</mask>
<g mask="url(#mask0_1_117)">
<path fill-rule="evenodd" clip-rule="evenodd" d="M27.9105 25.8507L26.5906 24.5315C26.5141 24.4546 26.4996 24.3347 26.557 24.2425C26.9603 23.5922 27.2555 22.8809 27.4312 22.1362C27.4551 22.0304 27.5496 21.9558 27.6582 21.9558H29.5246C29.6012 21.4757 29.6398 20.9866 29.6398 20.4995C29.6398 20.012 29.6016 19.5229 29.5246 19.0433H27.6582C27.5496 19.0433 27.4551 18.9687 27.4312 18.8628C27.2557 18.118 26.9604 17.4067 26.557 16.7565C26.4996 16.6644 26.5141 16.5444 26.5906 16.4675L27.9105 15.1483C27.3355 14.3542 26.6453 13.6628 25.8512 13.089L24.5312 14.4081C24.4939 14.4455 24.4451 14.4692 24.3926 14.4753C24.3401 14.4814 24.2871 14.4696 24.2422 14.4417C23.5922 14.0384 22.881 13.7435 22.1363 13.5687C22.085 13.5564 22.0392 13.5273 22.0065 13.4859C21.9738 13.4445 21.9559 13.3933 21.9559 13.3405V11.4745C20.9957 11.321 20.0031 11.321 19.0445 11.4745V13.3405C19.0445 13.4491 18.9695 13.5437 18.8641 13.5687C18.1193 13.7436 17.4079 14.0385 16.7578 14.4417C16.7129 14.4696 16.6599 14.4814 16.6074 14.4753C16.5549 14.4692 16.5061 14.4455 16.4688 14.4081L15.148 13.089C14.3539 13.6632 13.6637 14.3546 13.0883 15.1483L14.4082 16.4675C14.4455 16.5048 14.4691 16.5537 14.4752 16.6062C14.4813 16.6586 14.4696 16.7116 14.4418 16.7565C14.0375 17.4093 13.7434 18.1179 13.5695 18.8628C13.5572 18.9142 13.528 18.9599 13.4866 18.9927C13.4451 19.0254 13.3938 19.0432 13.341 19.0433H11.4746C11.3979 19.5249 11.3594 20.0118 11.3594 20.4995C11.3594 20.987 11.3977 21.4761 11.4746 21.9558H13.341C13.4496 21.9558 13.5441 22.0304 13.5695 22.1362C13.7437 22.8815 14.0379 23.5901 14.4418 24.2425C14.4992 24.3347 14.4848 24.4546 14.4082 24.5315L13.0883 25.8507C13.6637 26.6448 14.3539 27.3362 15.148 27.9101L16.468 26.5909C16.5053 26.5535 16.5542 26.5298 16.6066 26.5237C16.6591 26.5176 16.7121 26.5295 16.757 26.5573C17.4071 26.9607 18.1185 27.2556 18.8633 27.4304C18.9146 27.4426 18.9604 27.4717 18.9931 27.5131C19.0258 27.5545 19.0437 27.6057 19.0437 27.6585V29.5245C20.0039 29.678 20.9965 29.678 21.9551 29.5245V27.6585C21.9551 27.5499 22.0301 27.4554 22.1355 27.4304C22.8802 27.2554 23.5914 26.9606 24.2414 26.5573C24.2863 26.5295 24.3393 26.5176 24.3918 26.5237C24.4443 26.5298 24.4932 26.5535 24.5305 26.5909L25.8512 27.9101C26.6453 27.3358 27.3371 26.6444 27.9105 25.8507ZM20.4996 21.6382C19.7695 21.6382 19.3988 21.1546 19.218 20.7491C18.8793 19.9894 18.9527 18.9097 19.3762 18.4382C19.675 18.1058 20.0105 17.964 20.5012 17.964C20.9902 17.964 21.3258 18.1058 21.623 18.4382C22.0465 18.9097 22.1199 19.9897 21.7812 20.7491C21.6004 21.1546 21.2297 21.6382 20.4996 21.6382ZM20.4996 24.9308C19.3891 24.9308 18.3727 24.5202 17.5945 23.8429C17.9508 22.9296 18.7691 22.3257 19.6734 22.3257H21.3258C22.2301 22.3257 23.0484 22.9296 23.4047 23.8429C22.6266 24.5202 21.6102 24.9308 20.4996 24.9308ZM25.3988 20.4995C25.3988 23.2015 23.2016 25.3995 20.4996 25.3995C17.7977 25.3995 15.6004 23.2015 15.6004 20.4995C15.6004 17.7976 17.7977 15.5999 20.4996 15.5999C23.2016 15.5999 25.3988 17.7976 25.3988 20.4995Z" fill="#328873"/>
</g>
</g>
</g>
<defs>
<clipPath id="clip0_1_117">
<rect width="40" height="40" fill="white" transform="translate(0.5 0.5)"/>
</clipPath>
<clipPath id="clip1_1_117">
<rect width="40" height="40" fill="white" transform="translate(0.5 0.5)"/>
</clipPath>
</defs>
</svg>
