<svg width="41" height="41" viewBox="0 0 41 41" fill="none" xmlns="http://www.w3.org/2000/svg">
<g clip-path="url(#clip0_1_106)">
<g clip-path="url(#clip1_1_106)">
<path d="M20.5 40.5C31.5457 40.5 40.5 31.5457 40.5 20.5C40.5 9.4543 31.5457 0.5 20.5 0.5C9.4543 0.5 0.5 9.4543 0.5 20.5C0.5 31.5457 9.4543 40.5 20.5 40.5Z" fill="white"/>
<path d="M22.6875 22.3747V22.6872C22.6875 22.9358 22.5887 23.1743 22.4129 23.3501C22.2371 23.5259 21.9986 23.6247 21.75 23.6247H19.25C19.0014 23.6247 18.7629 23.5259 18.5871 23.3501C18.4113 23.1743 18.3125 22.9358 18.3125 22.6872V22.3747H14.25C13.7812 22.3745 13.3174 22.278 12.8874 22.0913C12.4573 21.9045 12.0702 21.6315 11.75 21.2891V26.7497C11.7505 27.1639 11.9153 27.5611 12.2082 27.854C12.5011 28.1469 12.8983 28.3117 13.3125 28.3122H27.6875C28.1017 28.3117 28.4989 28.1469 28.7918 27.854C29.0847 27.5611 29.2495 27.1639 29.25 26.7497V21.2891C28.9298 21.6315 28.5427 21.9045 28.1126 22.0913C27.6826 22.278 27.2188 22.3745 26.75 22.3747H22.6875Z" fill="#328873"/>
<path d="M27.6875 15.8125H13.3125C12.8983 15.813 12.5011 15.9778 12.2082 16.2707C11.9153 16.5636 11.7505 16.9608 11.75 17.375V20.2188C11.9856 20.6792 12.3436 21.0657 12.7847 21.3359C13.2258 21.606 13.7328 21.7493 14.25 21.75H18.3125V21.4375C18.3125 21.1889 18.4113 20.9504 18.5871 20.7746C18.7629 20.5988 19.0014 20.5 19.25 20.5H21.75C21.9986 20.5 22.2371 20.5988 22.4129 20.7746C22.5887 20.9504 22.6875 21.1889 22.6875 21.4375V21.75H26.75C27.2672 21.7493 27.7742 21.606 28.2153 21.3359C28.6564 21.0657 29.0144 20.6792 29.25 20.2188V17.375C29.2495 16.9608 29.0847 16.5636 28.7918 16.2707C28.4989 15.9778 28.1017 15.813 27.6875 15.8125Z" fill="#328873"/>
<path d="M21.75 21.125H19.25C19.0774 21.125 18.9375 21.2649 18.9375 21.4375V22.6875C18.9375 22.8601 19.0774 23 19.25 23H21.75C21.9226 23 22.0625 22.8601 22.0625 22.6875V21.4375C22.0625 21.2649 21.9226 21.125 21.75 21.125Z" fill="#328873"/>
<path d="M18 14.875C18 14.7921 18.0329 14.7126 18.0915 14.654C18.1501 14.5954 18.2296 14.5625 18.3125 14.5625H22.6875C22.7704 14.5625 22.8499 14.5954 22.9085 14.654C22.9671 14.7126 23 14.7921 23 14.875V15.1875H24.875V14.875C24.8743 14.295 24.6437 13.739 24.2336 13.3289C23.8235 12.9188 23.2675 12.6882 22.6875 12.6875H18.3125C17.7325 12.6882 17.1765 12.9188 16.7664 13.3289C16.3563 13.739 16.1257 14.295 16.125 14.875V15.1875H18V14.875Z" fill="#328873"/>
</g>
</g>
<defs>
<clipPath id="clip0_1_106">
<rect width="40" height="40" fill="white" transform="translate(0.5 0.5)"/>
</clipPath>
<clipPath id="clip1_1_106">
<rect width="40" height="40" fill="white" transform="translate(0.5 0.5)"/>
</clipPath>
</defs>
</svg>
