<svg width="41" height="41" viewBox="0 0 41 41" fill="none" xmlns="http://www.w3.org/2000/svg">
<g clip-path="url(#clip0_1_93)">
<g clip-path="url(#clip1_1_93)">
<path d="M20.5 40.5C31.5457 40.5 40.5 31.5457 40.5 20.5C40.5 9.4543 31.5457 0.5 20.5 0.5C9.4543 0.5 0.5 9.4543 0.5 20.5C0.5 31.5457 9.4543 40.5 20.5 40.5Z" fill="white"/>
<mask id="mask0_1_93" style="mask-type:luminance" maskUnits="userSpaceOnUse" x="10" y="10" width="21" height="21">
<path d="M30.5 10.5H10.5V30.5H30.5V10.5Z" fill="white"/>
</mask>
<g mask="url(#mask0_1_93)">
<path d="M23.3545 27.7414C22.1609 25.5563 21.5353 23.1064 21.535 20.6166V20.1552H19.466V20.6166C19.4657 23.1064 18.84 25.5563 17.6464 27.7414H23.3545ZM16.0548 24.955L16.7074 24.4655V20.5C16.7074 19.169 15.6245 18.0862 14.2936 18.0862H14.2925C14.464 18.3136 14.5762 18.5801 14.619 18.8617C15.0305 19.017 15.3848 19.2941 15.6347 19.656C15.8846 20.0179 16.0182 20.4474 16.0177 20.8872V24.4291C16.0177 24.6061 16.0304 24.7817 16.0548 24.955ZM20.5005 17.3966C20.1507 17.3968 19.8025 17.3485 19.466 17.2531V18.0862H21.535V17.2531C21.1984 17.3485 20.8503 17.3968 20.5005 17.3966ZM13.2591 14.6379H16.8508C16.7574 14.309 16.7074 13.9619 16.7074 13.6034C16.7074 13.245 16.7574 12.8979 16.8508 12.569H13.2591V11.6127L11.0195 13.6034L13.2591 15.5942V14.6379ZM18.7763 19.4655H22.225L22.2246 18.7759H18.7763V19.4655ZM27.7419 14.6379V15.5942L29.9814 13.6034L27.7419 11.6127V12.569H24.1502C24.2435 12.8979 24.2936 13.245 24.2936 13.6034C24.2936 13.9619 24.2435 14.309 24.1502 14.6379H27.7419ZM20.5005 16.7069C22.2117 16.7069 23.6039 15.3147 23.6039 13.6034C23.6039 11.8922 22.2117 10.5 20.5005 10.5C18.7892 10.5 17.397 11.8922 17.397 13.6034C17.397 15.3147 18.7892 16.7069 20.5005 16.7069ZM19.466 13.9483H20.1557V14.2931C20.1557 14.4832 20.3104 14.6379 20.5005 14.6379H20.8453V14.2931C20.8453 14.103 20.6906 13.9483 20.5005 13.9483C19.9301 13.9483 19.466 13.4842 19.466 12.9138V11.8793H20.1557V11.1897H20.8453V11.9386C21.2466 12.081 21.535 12.4643 21.535 12.9138V13.2586H20.8453V12.9138C20.8453 12.7237 20.6906 12.569 20.5005 12.569H20.1557V12.9138C20.1557 13.1039 20.3104 13.2586 20.5005 13.2586C21.0709 13.2586 21.535 13.7227 21.535 14.2931V15.3276H20.8453V16.0172H20.1557V15.2683C19.7543 15.1259 19.466 14.7426 19.466 14.2931V13.9483ZM28.7763 22.2241C28.9665 22.2241 29.1212 22.0694 29.1212 21.8793C29.1212 21.6892 28.9665 21.5345 28.7763 21.5345H26.0177C25.8276 21.5345 25.6729 21.6892 25.6729 21.8793C25.6729 22.0694 25.8276 22.2241 26.0177 22.2241H28.7763ZM12.1762 18.9424C12.3014 18.8826 12.4335 18.8384 12.5694 18.8105V18.0902C12.3125 18.113 12.081 18.2427 11.9285 18.4471L12.1762 18.9424ZM29.466 18.0862V19.4655H28.0867V18.0862H26.7074V19.4655H25.3281V18.0862H24.2936V20.0029C24.2935 20.0753 24.3162 20.1459 24.3586 20.2046C24.4009 20.2633 24.4607 20.3072 24.5294 20.33L26.0737 20.8448H28.7203L30.2647 20.33C30.3334 20.3072 30.3931 20.2633 30.4354 20.2046C30.4778 20.1459 30.5005 20.0753 30.5004 20.0029V18.0862H29.466ZM24.2936 27.7414H24.9832C25.3635 27.7414 25.6729 28.0508 25.6729 28.431H30.5005V27.0517H24.2936V27.7414ZM29.8851 26.3621C28.979 25.4533 28.4515 24.2228 28.4326 22.9138H26.3615C26.3425 24.2228 25.815 25.4533 24.9089 26.3621H29.8851ZM16.0177 28.431V30.5H24.9837L24.9832 28.431H16.0177Z" fill="#328873"/>
<path d="M11.3621 22.9138H11.4531L12.3982 22.4412C12.6839 22.2988 12.9986 22.2245 13.3178 22.2241C13.6654 22.2241 13.9483 21.9413 13.9483 21.5937C13.9483 21.4252 13.8827 21.2669 13.7636 21.1478L13.7044 21.0886L14.1921 20.601L14.2513 20.6602C14.5006 20.9095 14.6379 21.241 14.6379 21.5937C14.6379 22.3216 14.0457 22.9138 13.3178 22.9138C13.2969 22.9138 13.2759 22.9146 13.2549 22.9156C13.2114 23.7102 12.752 24.4147 12.0335 24.7739C11.513 25.0342 11.1897 25.5574 11.1897 26.1393V26.3621H15.7694C15.4782 25.7593 15.3271 25.0985 15.3276 24.4291V20.8872C15.328 20.5579 15.218 20.238 15.0154 19.9785C14.8128 19.7189 14.529 19.5347 14.2095 19.4552L13.9483 19.3899V19.1207C13.9483 18.6712 13.66 18.2879 13.2586 18.1455V19.4655H12.9138C12.3434 19.4655 11.8793 19.9296 11.8793 20.5V21.0172L10.5 22.0517C10.5 22.5271 10.8867 22.9138 11.3621 22.9138ZM16.7069 27.7414V27.0517H10.5V28.431H15.3276C15.3276 28.0508 15.637 27.7414 16.0172 27.7414H16.7069Z" fill="#328873"/>
</g>
</g>
</g>
<defs>
<clipPath id="clip0_1_93">
<rect width="40" height="40" fill="white" transform="translate(0.5 0.5)"/>
</clipPath>
<clipPath id="clip1_1_93">
<rect width="40" height="40" fill="white" transform="translate(0.5 0.5)"/>
</clipPath>
</defs>
</svg>
