<svg width="70" height="30" viewBox="0 0 70 30" fill="none" xmlns="http://www.w3.org/2000/svg">
<path d="M28.855 12V7.23C28.855 6.96 28.816 6.744 28.738 6.582C28.666 6.414 28.495 6.33 28.225 6.33H28.135V6.06H30.583C31.819 6.06 32.746 6.321 33.364 6.843C33.988 7.365 34.3 8.082 34.3 8.994C34.3 9.588 34.165 10.11 33.895 10.56C33.631 11.01 33.241 11.364 32.725 11.622C32.209 11.874 31.573 12 30.817 12H28.855ZM30.79 11.64C31.21 11.64 31.582 11.535 31.906 11.325C32.23 11.115 32.485 10.815 32.671 10.425C32.857 10.035 32.95 9.57 32.95 9.03C32.95 8.502 32.857 8.043 32.671 7.653C32.491 7.263 32.236 6.96 31.906 6.744C31.582 6.528 31.204 6.42 30.772 6.42C30.64 6.42 30.526 6.423 30.43 6.429C30.334 6.435 30.199 6.453 30.025 6.483V11.577C30.157 11.601 30.259 11.619 30.331 11.631C30.409 11.637 30.481 11.64 30.547 11.64C30.613 11.64 30.694 11.64 30.79 11.64ZM42.25 12.405C41.818 12.405 41.467 12.336 41.197 12.198C40.927 12.066 40.729 11.859 40.603 11.577C40.483 11.289 40.423 10.92 40.423 10.47V7.284L38.452 12H38.155L35.743 7.104V12H35.293V6.06H36.391L38.569 10.479L40.414 6.06H41.593V10.47C41.593 11.016 41.638 11.427 41.728 11.703C41.824 11.973 41.998 12.132 42.25 12.18V12.405ZM43.8911 12C43.6811 12 43.5161 11.967 43.3961 11.901C43.2821 11.829 43.2011 11.709 43.1531 11.541C43.1051 11.367 43.0811 11.13 43.0811 10.83V6.06H44.2511V10.83C44.2511 11.1 44.2871 11.319 44.3591 11.487C44.4371 11.649 44.6111 11.73 44.8811 11.73H44.9711V12H43.8911ZM47.1915 12V6.465H46.5525C46.2345 6.465 45.9825 6.546 45.7965 6.708C45.6105 6.864 45.5175 7.143 45.5175 7.545H45.2475V6.78C45.2475 6.66 45.2685 6.546 45.3105 6.438C45.3525 6.324 45.4275 6.234 45.5355 6.168C45.6495 6.096 45.8085 6.06 46.0125 6.06H50.2425V6.465H48.3615V12H47.1915ZM55.3113 12.09C55.1013 12.09 54.9003 12.048 54.7083 11.964C54.5163 11.88 54.3273 11.745 54.1413 11.559C53.9613 11.367 53.7723 11.109 53.5743 10.785L52.6743 9.282H52.3143V12H51.1353V7.23C51.1353 6.96 51.0963 6.744 51.0183 6.582C50.9463 6.414 50.7753 6.33 50.5053 6.33H50.4153V6.06H52.8993C53.0613 6.06 53.2473 6.072 53.4573 6.096C53.6733 6.114 53.8893 6.156 54.1053 6.222C54.3213 6.282 54.5223 6.372 54.7083 6.492C54.8943 6.612 55.0443 6.771 55.1583 6.969C55.2723 7.161 55.3293 7.401 55.3293 7.689C55.3293 8.007 55.2573 8.268 55.1133 8.472C54.9753 8.67 54.7953 8.826 54.5733 8.94C54.3513 9.054 54.1173 9.144 53.8713 9.21L54.8163 10.785C55.0443 11.169 55.2543 11.424 55.4463 11.55C55.6383 11.676 55.8003 11.751 55.9323 11.775V12C55.8843 12.024 55.7973 12.045 55.6713 12.063C55.5513 12.081 55.4313 12.09 55.3113 12.09ZM52.3143 8.922H52.8543C52.9983 8.922 53.1423 8.901 53.2863 8.859C53.4303 8.817 53.5593 8.748 53.6733 8.652C53.7933 8.556 53.8893 8.427 53.9613 8.265C54.0333 8.103 54.0693 7.905 54.0693 7.671C54.0693 7.437 54.0333 7.242 53.9613 7.086C53.8953 6.924 53.8023 6.795 53.6823 6.699C53.5683 6.597 53.4393 6.525 53.2953 6.483C53.1573 6.441 53.0163 6.42 52.8723 6.42C52.8243 6.42 52.7523 6.423 52.6563 6.429C52.5663 6.435 52.4523 6.453 52.3143 6.483V8.922ZM57.3472 12C57.1372 12 56.9722 11.967 56.8522 11.901C56.7382 11.829 56.6572 11.709 56.6092 11.541C56.5612 11.367 56.5372 11.13 56.5372 10.83V6.06H57.7072V10.83C57.7072 11.1 57.7432 11.319 57.8152 11.487C57.8932 11.649 58.0672 11.73 58.3372 11.73H58.4272V12H57.3472ZM59.4146 12V7.23C59.4146 6.96 59.3756 6.744 59.2976 6.582C59.2256 6.414 59.0546 6.33 58.7846 6.33H58.6946V6.06H62.6636C62.8736 6.06 63.0326 6.096 63.1406 6.168C63.2486 6.234 63.3236 6.324 63.3656 6.438C63.4076 6.546 63.4286 6.66 63.4286 6.78V7.545H63.1586C63.1586 7.161 63.0596 6.885 62.8616 6.717C62.6696 6.549 62.3936 6.465 62.0336 6.465H60.5846V8.715H62.9246V9.12H60.5846V11.595H62.1236C62.4536 11.595 62.7326 11.523 62.9606 11.379C63.1946 11.229 63.3896 10.959 63.5456 10.569L63.7886 10.659L63.5276 11.37C63.4616 11.562 63.3746 11.715 63.2666 11.829C63.1646 11.943 62.9906 12 62.7446 12H59.4146ZM66.6471 12.09L64.5501 7.113C64.4061 6.777 64.2651 6.543 64.1271 6.411C63.9951 6.273 63.8391 6.192 63.6591 6.168V5.988C63.6831 5.988 63.7431 5.985 63.8391 5.979C63.9291 5.973 63.9951 5.97 64.0371 5.97C64.2471 5.97 64.4601 5.994 64.6761 6.042C64.8981 6.09 65.1081 6.195 65.3061 6.357C65.5041 6.519 65.6751 6.771 65.8191 7.113L67.2411 10.479L69.1401 6.06H69.5991L67.0071 12.09H66.6471ZM33.679 21.09C33.457 21.09 33.232 21.063 33.004 21.009C32.776 20.955 32.536 20.85 32.284 20.694C32.038 20.538 31.771 20.31 31.483 20.01L30.034 18.498V21H28.864L28.855 16.23C28.855 15.96 28.816 15.744 28.738 15.582C28.666 15.414 28.495 15.33 28.225 15.33H28.135V15.06H29.215C29.425 15.06 29.587 15.096 29.701 15.168C29.821 15.24 29.905 15.36 29.953 15.528C30.007 15.696 30.034 15.93 30.034 16.23V17.94L31.591 16.005C31.723 15.837 31.867 15.681 32.023 15.537C32.179 15.393 32.353 15.279 32.545 15.195C32.737 15.105 32.95 15.06 33.184 15.06H33.814V15.375C33.472 15.375 33.163 15.42 32.887 15.51C32.611 15.594 32.371 15.762 32.167 16.014L30.826 17.67L32.905 19.83C33.055 19.992 33.217 20.145 33.391 20.289C33.571 20.427 33.745 20.541 33.913 20.631C34.081 20.715 34.222 20.766 34.336 20.784V21C34.27 21.024 34.177 21.045 34.057 21.063C33.943 21.081 33.817 21.09 33.679 21.09ZM35.7612 21C35.5512 21 35.3862 20.967 35.2662 20.901C35.1522 20.829 35.0712 20.709 35.0232 20.541C34.9752 20.367 34.9512 20.13 34.9512 19.83V15.06H36.1212V19.83C36.1212 20.1 36.1572 20.319 36.2292 20.487C36.3072 20.649 36.4812 20.73 36.7512 20.73H36.8412V21H35.7612ZM42.0046 21.09C41.7946 21.09 41.5936 21.048 41.4016 20.964C41.2096 20.88 41.0206 20.745 40.8346 20.559C40.6546 20.367 40.4656 20.109 40.2676 19.785L39.3676 18.282H39.0076V21H37.8286V16.23C37.8286 15.96 37.7896 15.744 37.7116 15.582C37.6396 15.414 37.4686 15.33 37.1986 15.33H37.1086V15.06H39.5926C39.7546 15.06 39.9406 15.072 40.1506 15.096C40.3666 15.114 40.5826 15.156 40.7986 15.222C41.0146 15.282 41.2156 15.372 41.4016 15.492C41.5876 15.612 41.7376 15.771 41.8516 15.969C41.9656 16.161 42.0226 16.401 42.0226 16.689C42.0226 17.007 41.9506 17.268 41.8066 17.472C41.6686 17.67 41.4886 17.826 41.2666 17.94C41.0446 18.054 40.8106 18.144 40.5646 18.21L41.5096 19.785C41.7376 20.169 41.9476 20.424 42.1396 20.55C42.3316 20.676 42.4936 20.751 42.6256 20.775V21C42.5776 21.024 42.4906 21.045 42.3646 21.063C42.2446 21.081 42.1246 21.09 42.0046 21.09ZM39.0076 17.922H39.5476C39.6916 17.922 39.8356 17.901 39.9796 17.859C40.1236 17.817 40.2526 17.748 40.3666 17.652C40.4866 17.556 40.5826 17.427 40.6546 17.265C40.7266 17.103 40.7626 16.905 40.7626 16.671C40.7626 16.437 40.7266 16.242 40.6546 16.086C40.5886 15.924 40.4956 15.795 40.3756 15.699C40.2616 15.597 40.1326 15.525 39.9886 15.483C39.8506 15.441 39.7096 15.42 39.5656 15.42C39.5176 15.42 39.4456 15.423 39.3496 15.429C39.2596 15.435 39.1456 15.453 39.0076 15.483V17.922ZM44.0405 21C43.8305 21 43.6655 20.967 43.5455 20.901C43.4315 20.829 43.3505 20.709 43.3025 20.541C43.2545 20.367 43.2305 20.13 43.2305 19.83V15.06H44.4005V19.83C44.4005 20.1 44.4365 20.319 44.5085 20.487C44.5865 20.649 44.7605 20.73 45.0305 20.73H45.1205V21H44.0405ZM46.1079 21V16.23C46.1079 15.96 46.0689 15.744 45.9909 15.582C45.9189 15.414 45.7479 15.33 45.4779 15.33H45.3879V15.06H46.4679C46.6779 15.06 46.8399 15.096 46.9539 15.168C47.0739 15.24 47.1579 15.36 47.2059 15.528C47.2539 15.696 47.2779 15.93 47.2779 16.23V20.595H50.3829V21H46.1079ZM51.0913 21V16.23C51.0913 15.96 51.0523 15.744 50.9743 15.582C50.9023 15.414 50.7313 15.33 50.4613 15.33H50.3713V15.06H51.4513C51.6613 15.06 51.8233 15.096 51.9373 15.168C52.0573 15.24 52.1413 15.36 52.1893 15.528C52.2373 15.696 52.2613 15.93 52.2613 16.23V20.595H55.3663V21H51.0913Z" fill="white"/>
<path d="M11 13C6.30827 13 2 19.5 2 21" stroke="#328873" stroke-width="2"/>
<path d="M2 4.6C2 9.46214 8.66667 12.065 12 13" stroke="#328873" stroke-width="2"/>
<path d="M7.528 5.28V4.608H12.4C15.744 4.624 17.536 4.656 17.776 4.704L18.064 4.776C19.552 5.096 20.832 5.88 21.904 7.128C23.024 8.44 23.704 10.032 23.944 11.904C24.008 12.432 24.016 13.032 23.968 13.704C23.952 13.768 23.944 13.816 23.944 13.848C23.72 15.832 22.968 17.48 21.688 18.792C20.568 19.96 19.208 20.672 17.608 20.928C17.4 20.96 15.664 20.984 12.4 21H7.528V20.328V19.656H8.2C9.32 19.656 9.912 19.6 9.976 19.488V6.12C9.912 6.008 9.32 5.952 8.2 5.952H7.528V5.28ZM16.72 6C16.608 5.984 15.976 5.968 14.824 5.952L13 5.976C12.84 5.992 12.744 6.032 12.712 6.096C12.68 6.128 12.664 8.368 12.664 12.816V19.464L12.712 19.512C12.776 19.592 13.128 19.632 13.768 19.632C13.928 19.632 14.24 19.632 14.704 19.632C16 19.632 16.832 19.592 17.2 19.512C17.232 19.496 17.28 19.48 17.344 19.464C18.224 19.256 18.96 18.84 19.552 18.216C20.336 17.4 20.8 16.176 20.944 14.544C20.992 13.92 21 13.024 20.968 11.856C20.952 11.056 20.872 10.368 20.728 9.792C20.312 7.92 19.224 6.712 17.464 6.168C17.224 6.104 16.976 6.048 16.72 6Z" fill="#328873"/>
</svg>
