<svg width="68" height="29" viewBox="0 0 68 29" fill="none" xmlns="http://www.w3.org/2000/svg">
<path d="M10.776 3.632C10.808 3.616 12.416 3.608 15.6 3.608C18.88 3.624 20.632 3.656 20.856 3.704C20.872 3.704 20.96 3.728 21.12 3.776C21.776 3.92 22.336 4.16 22.8 4.496C24.304 5.504 25.128 7.024 25.272 9.056C25.304 9.328 25.312 9.608 25.296 9.896C25.216 12.232 24.36 14.376 22.728 16.328C22.344 16.808 21.88 17.28 21.336 17.744C19.832 18.96 18.24 19.696 16.56 19.952C16.4 19.968 14.744 19.984 11.592 20C8.424 20 6.8 19.952 6.72 19.856C6.688 19.808 6.704 19.624 6.768 19.304C6.848 18.952 6.928 18.752 7.008 18.704C7.088 18.672 7.376 18.656 7.872 18.656C8.768 18.64 9.272 18.576 9.384 18.464C9.432 18.432 10.008 16.208 11.112 11.792C12.216 7.376 12.768 5.152 12.768 5.12C12.768 5.104 12.752 5.08 12.72 5.048C12.656 5.016 12.224 4.984 11.424 4.952H10.608L10.512 4.856C10.448 4.792 10.456 4.584 10.536 4.232C10.632 3.864 10.712 3.664 10.776 3.632ZM19.2 4.976H15.648C15.488 4.992 15.384 5.04 15.336 5.12L11.976 18.56C11.976 18.592 12.008 18.616 12.072 18.632L15.96 18.608C15.992 18.608 16.016 18.608 16.032 18.608C17.12 18.464 18.064 18.12 18.864 17.576C19.184 17.368 19.504 17.104 19.824 16.784C20.72 15.888 21.424 14.528 21.936 12.704C22.256 11.552 22.472 10.576 22.584 9.776C22.68 9.024 22.68 8.384 22.584 7.856C22.44 7.12 22.144 6.512 21.696 6.032C21.056 5.424 20.224 5.072 19.2 4.976Z" fill="#328873"/>
<path d="M12 12C6.52632 12 1.5 18.5 1.5 20" stroke="#328873" stroke-width="2"/>
<path d="M5 3.6C5 8.74526 10.3333 12.0105 13 13" stroke="#328873" stroke-width="2"/>
<path d="M13.6603 5.14949C13.6603 5.02697 13.5941 5.0007 13.5203 4.90333C13.4934 4.86785 13.464 4.835 13.436 4.80047C13.4284 4.79102 13.4027 4.74865 13.4031 4.75073C13.4304 4.8735 13.5076 4.98793 13.554 5.10397C13.6208 5.27092 13.675 5.44236 13.7429 5.60895C13.7847 5.71164 13.7481 5.5902 13.7361 5.55247C13.6581 5.30689 13.6523 5.04403 13.6384 4.78867C13.6313 4.66049 13.6299 4.53256 13.6299 4.40424C13.6299 4.40245 13.6291 4.29947 13.6384 4.30476C13.6612 4.3178 13.67 4.39374 13.6754 4.41436C13.6956 4.49068 13.7167 4.56229 13.7513 4.63355C13.8264 4.788 13.9037 4.94381 14 5.08627C14.0574 5.17103 14.053 5.16844 14.0548 5.0635C14.0572 4.92832 14.0713 4.76014 14.161 4.65041C14.1974 4.60599 14.2295 4.6032 14.2824 4.6032C14.3384 4.6032 14.3387 4.6329 14.3423 4.68835C14.3444 4.72093 14.3339 4.91888 14.2976 4.93705" stroke="#328873" stroke-linecap="round"/>
<path d="M13.7513 4.54251C14.2418 4.54251 14.7349 4.52734 15.2233 4.52734C15.3858 4.52734 15.8714 4.48181 15.7089 4.48181" stroke="#328873" stroke-linecap="round"/>
<path d="M28.2205 11C28.2788 10.7293 28.3348 10.4668 28.3885 10.2125C28.4422 9.95583 28.5028 9.67117 28.5705 9.3585L28.924 7.689C28.9917 7.367 29.0535 7.07417 29.1095 6.8105C29.1655 6.54683 29.2227 6.27967 29.281 6.009C29.4583 6.009 29.6357 6.009 29.813 6.009C29.9927 6.009 30.1735 6.009 30.3555 6.009C30.5375 6.009 30.7218 6.009 30.9085 6.009C31.3145 6.009 31.6633 6.08017 31.955 6.2225C32.2467 6.3625 32.4788 6.55617 32.6515 6.8035C32.8265 7.05083 32.9397 7.33433 32.991 7.654C33.0447 7.97367 33.0342 8.31433 32.9595 8.676C32.8872 9.03067 32.7798 9.3515 32.6375 9.6385C32.4975 9.92317 32.3132 10.167 32.0845 10.37C31.8558 10.573 31.5712 10.7293 31.2305 10.839C30.8898 10.9463 30.4803 11 30.002 11C29.7757 11 29.5633 11 29.365 11C29.169 11 28.9777 11 28.791 11C28.6067 11 28.4165 11 28.2205 11ZM29.19 10.328H30.072C30.5107 10.328 30.8665 10.2568 31.1395 10.1145C31.4148 9.96983 31.6283 9.768 31.78 9.509C31.934 9.24767 32.0472 8.94083 32.1195 8.5885C32.1755 8.33183 32.1895 8.08917 32.1615 7.8605C32.1335 7.63183 32.0623 7.42883 31.948 7.2515C31.8337 7.07183 31.6738 6.93183 31.4685 6.8315C31.2655 6.73117 31.0135 6.681 30.7125 6.681H29.96C29.9203 6.86533 29.8807 7.04967 29.841 7.234C29.8037 7.41833 29.7605 7.62367 29.7115 7.85L29.4315 9.173C29.3872 9.39467 29.3452 9.59767 29.3055 9.782C29.2682 9.96633 29.2297 10.1483 29.19 10.328ZM33.1283 11C33.2169 10.7363 33.3056 10.4715 33.3943 10.2055C33.4829 9.9395 33.5774 9.65483 33.6778 9.3515L34.2343 7.6925C34.3346 7.38917 34.4291 7.1045 34.5178 6.8385C34.6064 6.57017 34.6986 6.29367 34.7943 6.009H35.5993C35.6623 6.34733 35.7229 6.6705 35.7813 6.9785C35.8396 7.2865 35.8968 7.5945 35.9528 7.9025L36.2923 9.712H36.3518L37.4403 7.899C37.6223 7.591 37.8054 7.28417 37.9898 6.9785C38.1741 6.67283 38.3678 6.34967 38.5708 6.009H39.4248C39.4014 6.289 39.3781 6.56317 39.3548 6.8315C39.3314 7.0975 39.3058 7.3845 39.2778 7.6925L39.1343 9.362C39.1109 9.663 39.0876 9.943 39.0643 10.202C39.0409 10.461 39.0176 10.727 38.9943 11H38.2103C38.2476 10.5917 38.2826 10.202 38.3153 9.831C38.3479 9.46 38.3783 9.117 38.4063 8.802L38.5253 7.423H38.4693L37.5978 8.9035C37.3854 9.26517 37.1731 9.62683 36.9608 9.9885C36.7508 10.3478 36.5524 10.685 36.3658 11H35.8128C35.7778 10.7993 35.7381 10.5823 35.6938 10.349C35.6494 10.1133 35.6039 9.873 35.5573 9.628C35.5129 9.383 35.4686 9.14617 35.4243 8.9175L35.1443 7.423H35.0883L34.6298 8.802C34.5248 9.124 34.4116 9.46817 34.2903 9.8345C34.1689 10.2008 34.0394 10.5893 33.9018 11H33.1283ZM40.0265 11C40.0848 10.7247 40.1408 10.461 40.1945 10.209C40.2482 9.95467 40.3088 9.67 40.3765 9.355L40.73 7.689C40.8 7.367 40.8618 7.0765 40.9155 6.8175C40.9715 6.55617 41.0287 6.28667 41.087 6.009H41.9235C41.8652 6.28433 41.808 6.55383 41.752 6.8175C41.6983 7.07883 41.6365 7.36933 41.5665 7.689L41.213 9.355C41.1453 9.67 41.0847 9.95467 41.031 10.209C40.9797 10.461 40.9237 10.7247 40.863 11H40.0265ZM43.3198 11C43.3781 10.7293 43.4341 10.4668 43.4878 10.2125C43.5414 9.95583 43.6009 9.67117 43.6663 9.3585L43.9988 7.801C44.0664 7.48367 44.1271 7.1955 44.1808 6.9365C44.2344 6.6775 44.2916 6.41033 44.3523 6.135L44.5378 6.7335H43.9218C43.6464 6.7335 43.4026 6.7335 43.1903 6.7335C42.9779 6.7335 42.7761 6.7335 42.5848 6.7335L42.7353 6.009H46.8268L46.6728 6.7335C46.4814 6.7335 46.2796 6.7335 46.0673 6.7335C45.8573 6.7335 45.6134 6.7335 45.3358 6.7335H44.7198L45.1713 6.135C45.1129 6.41033 45.0558 6.6775 44.9998 6.9365C44.9461 7.1955 44.8854 7.48367 44.8178 7.801L44.4888 9.3585C44.4211 9.67117 44.3604 9.95583 44.3068 10.2125C44.2531 10.4668 44.1971 10.7293 44.1388 11H43.3198ZM46.5648 11C46.6232 10.727 46.6792 10.4633 46.7328 10.209C46.7865 9.95467 46.846 9.67117 46.9113 9.3585L47.2648 7.689C47.3325 7.36467 47.3943 7.073 47.4503 6.814C47.5063 6.555 47.5635 6.28667 47.6218 6.009C47.7572 6.009 47.9123 6.009 48.0873 6.009C48.2647 6.009 48.4572 6.009 48.6648 6.009C48.8725 6.009 49.093 6.009 49.3263 6.009C49.716 6.009 50.0357 6.07083 50.2853 6.1945C50.535 6.31817 50.7077 6.4955 50.8033 6.7265C50.9013 6.9575 50.9153 7.23517 50.8453 7.5595C50.7847 7.8465 50.682 8.0915 50.5373 8.2945C50.395 8.49517 50.1885 8.64917 49.9178 8.7565C49.6495 8.8615 49.2983 8.91283 48.8643 8.9105L49.2038 8.571L49.7498 9.5615C49.8338 9.7155 49.9237 9.87883 50.0193 10.0515C50.115 10.2242 50.2072 10.3933 50.2958 10.559C50.3868 10.7247 50.4673 10.8717 50.5373 11H49.6168C49.5095 10.7947 49.4068 10.5975 49.3088 10.4085C49.2108 10.2195 49.1152 10.0317 49.0218 9.845L48.3988 8.634L48.8153 9.0785H47.6218L47.7653 8.41H48.7488C48.9985 8.41 49.2062 8.3855 49.3718 8.3365C49.5398 8.28517 49.6728 8.19767 49.7708 8.074C49.8688 7.95033 49.9423 7.77533 49.9913 7.549C50.0287 7.37167 50.0287 7.227 49.9913 7.115C49.9563 7.00067 49.8968 6.912 49.8128 6.849C49.7288 6.786 49.6308 6.74167 49.5188 6.716C49.4092 6.69033 49.2972 6.6775 49.1828 6.6775H47.7268L48.3988 6.135C48.3405 6.41033 48.2833 6.6775 48.2273 6.9365C48.1737 7.1955 48.1142 7.48017 48.0488 7.7905L47.7163 9.3585C47.651 9.67117 47.5915 9.95467 47.5378 10.209C47.4842 10.461 47.4282 10.7247 47.3698 11H46.5648ZM51.3195 11C51.3778 10.7247 51.4338 10.461 51.4875 10.209C51.5411 9.95467 51.6018 9.67 51.6695 9.355L52.023 7.689C52.093 7.367 52.1548 7.0765 52.2085 6.8175C52.2645 6.55617 52.3216 6.28667 52.38 6.009H53.2165C53.1581 6.28433 53.101 6.55383 53.045 6.8175C52.9913 7.07883 52.9295 7.36933 52.8595 7.689L52.506 9.355C52.4383 9.67 52.3776 9.95467 52.324 10.209C52.2726 10.461 52.2166 10.7247 52.156 11H51.3195ZM53.3597 11C53.4157 10.727 53.4706 10.4633 53.5242 10.209C53.5802 9.95467 53.6409 9.67117 53.7062 9.3585L54.0597 7.6925C54.1274 7.37283 54.1892 7.0835 54.2452 6.8245C54.3012 6.56317 54.3584 6.29133 54.4167 6.009H57.5912L57.4407 6.702C57.2144 6.702 56.9717 6.702 56.7127 6.702C56.4561 6.702 56.1516 6.702 55.7992 6.702H54.6127L55.1937 6.128C55.1354 6.408 55.0782 6.6775 55.0222 6.9365C54.9686 7.1955 54.9079 7.4825 54.8402 7.7975L54.5392 9.229C54.4739 9.53933 54.4144 9.82167 54.3607 10.076C54.3071 10.3303 54.2511 10.5928 54.1927 10.8635L53.9057 10.307H55.1062C55.4026 10.307 55.6826 10.307 55.9462 10.307C56.2099 10.307 56.4631 10.307 56.7057 10.307L56.5517 11H53.3597ZM54.4412 8.809L54.5847 8.1405H55.5367C55.8517 8.1405 56.1236 8.1405 56.3522 8.1405C56.5832 8.1405 56.8037 8.1405 57.0137 8.1405L56.8737 8.809C56.6474 8.809 56.4199 8.809 56.1912 8.809C55.9649 8.809 55.6977 8.809 55.3897 8.809H54.4412ZM58.8178 11C58.7875 10.7527 58.7537 10.4867 58.7163 10.202C58.679 9.91733 58.644 9.656 58.6113 9.418L58.4083 7.857C58.385 7.67733 58.3593 7.4825 58.3313 7.2725C58.3057 7.0625 58.2777 6.849 58.2473 6.632C58.2193 6.415 58.1925 6.20733 58.1668 6.009H59.0278C59.0675 6.352 59.1083 6.716 59.1503 7.101C59.1947 7.486 59.2367 7.85117 59.2763 8.1965L59.4968 10.1565H59.5668L60.5958 8.186C60.7755 7.84067 60.9622 7.48133 61.1558 7.108C61.3518 6.73233 61.5432 6.366 61.7298 6.009H62.6748C62.5652 6.20733 62.4508 6.415 62.3318 6.632C62.2152 6.84667 62.0997 7.05783 61.9853 7.2655C61.871 7.47317 61.7637 7.66917 61.6633 7.8535L60.8058 9.4145C60.6775 9.6525 60.5352 9.91383 60.3788 10.1985C60.2225 10.4808 60.0755 10.748 59.9378 11H58.8178ZM31.2585 19C31.1045 18.7667 30.9598 18.5485 30.8245 18.3455C30.6915 18.1402 30.5608 17.9383 30.4325 17.74L29.778 16.7425H29.442L29.582 16.0845H29.911L30.8035 15.2585C31.0112 15.0648 31.2177 14.8723 31.423 14.681C31.6283 14.4873 31.8675 14.2633 32.1405 14.009H33.1625C32.8638 14.282 32.5722 14.5492 32.2875 14.8105C32.0052 15.0695 31.724 15.3297 31.444 15.591L30.3625 16.585V16.207L31.115 17.3445C31.234 17.5195 31.36 17.7085 31.493 17.9115C31.626 18.1122 31.7555 18.3082 31.8815 18.4995C32.0098 18.6885 32.1218 18.8553 32.2175 19H31.2585ZM28.2205 19C28.2788 18.7293 28.3348 18.4668 28.3885 18.2125C28.4422 17.9558 28.5028 17.6712 28.5705 17.3585L28.924 15.689C28.9917 15.3693 29.0535 15.0788 29.1095 14.8175C29.1655 14.5562 29.2227 14.2867 29.281 14.009H30.1C30.0417 14.2843 29.9845 14.5538 29.9285 14.8175C29.8748 15.0788 29.813 15.3693 29.743 15.689L29.3895 17.3585C29.3242 17.6712 29.2647 17.9558 29.211 18.2125C29.1573 18.4668 29.1013 18.7293 29.043 19H28.2205ZM32.9991 19C33.0575 18.7247 33.1135 18.461 33.1671 18.209C33.2208 17.9547 33.2815 17.67 33.3491 17.355L33.7026 15.689C33.7726 15.367 33.8345 15.0765 33.8881 14.8175C33.9441 14.5562 34.0013 14.2867 34.0596 14.009H34.8961C34.8378 14.2843 34.7806 14.5538 34.7246 14.8175C34.671 15.0788 34.6091 15.3693 34.5391 15.689L34.1856 17.355C34.118 17.67 34.0573 17.9547 34.0036 18.209C33.9523 18.461 33.8963 18.7247 33.8356 19H32.9991ZM35.0394 19C35.0978 18.727 35.1538 18.4633 35.2074 18.209C35.2611 17.9547 35.3206 17.6712 35.3859 17.3585L35.7394 15.689C35.8071 15.3647 35.8689 15.073 35.9249 14.814C35.9809 14.555 36.0381 14.2867 36.0964 14.009C36.2318 14.009 36.3869 14.009 36.5619 14.009C36.7393 14.009 36.9318 14.009 37.1394 14.009C37.3471 14.009 37.5676 14.009 37.8009 14.009C38.1906 14.009 38.5103 14.0708 38.7599 14.1945C39.0096 14.3182 39.1823 14.4955 39.2779 14.7265C39.3759 14.9575 39.3899 15.2352 39.3199 15.5595C39.2593 15.8465 39.1566 16.0915 39.0119 16.2945C38.8696 16.4952 38.6631 16.6492 38.3924 16.7565C38.1241 16.8615 37.7729 16.9128 37.3389 16.9105L37.6784 16.571L38.2244 17.5615C38.3084 17.7155 38.3983 17.8788 38.4939 18.0515C38.5896 18.2242 38.6818 18.3933 38.7704 18.559C38.8614 18.7247 38.9419 18.8717 39.0119 19H38.0914C37.9841 18.7947 37.8814 18.5975 37.7834 18.4085C37.6854 18.2195 37.5898 18.0317 37.4964 17.845L36.8734 16.634L37.2899 17.0785H36.0964L36.2399 16.41H37.2234C37.4731 16.41 37.6808 16.3855 37.8464 16.3365C38.0144 16.2852 38.1474 16.1977 38.2454 16.074C38.3434 15.9503 38.4169 15.7753 38.4659 15.549C38.5033 15.3717 38.5033 15.227 38.4659 15.115C38.4309 15.0007 38.3714 14.912 38.2874 14.849C38.2034 14.786 38.1054 14.7417 37.9934 14.716C37.8838 14.6903 37.7718 14.6775 37.6574 14.6775H36.2014L36.8734 14.135C36.8151 14.4103 36.7579 14.6775 36.7019 14.9365C36.6483 15.1955 36.5888 15.4802 36.5234 15.7905L36.1909 17.3585C36.1256 17.6712 36.0661 17.9547 36.0124 18.209C35.9588 18.461 35.9028 18.7247 35.8444 19H35.0394ZM39.7941 19C39.8524 18.7247 39.9084 18.461 39.9621 18.209C40.0157 17.9547 40.0764 17.67 40.1441 17.355L40.4976 15.689C40.5676 15.367 40.6294 15.0765 40.6831 14.8175C40.7391 14.5562 40.7962 14.2867 40.8546 14.009H41.6911C41.6327 14.2843 41.5756 14.5538 41.5196 14.8175C41.4659 15.0788 41.4041 15.3693 41.3341 15.689L40.9806 17.355C40.9129 17.67 40.8522 17.9547 40.7986 18.209C40.7472 18.461 40.6912 18.7247 40.6306 19H39.7941ZM41.8309 19C41.8892 18.727 41.9452 18.4633 41.9989 18.209C42.0525 17.9547 42.1132 17.6712 42.1809 17.3585L42.5344 15.689C42.6044 15.367 42.6662 15.0765 42.7199 14.8175C42.7759 14.5562 42.833 14.2867 42.8914 14.009H43.7174C43.659 14.289 43.6019 14.5597 43.5459 14.821C43.4899 15.08 43.428 15.3693 43.3604 15.689L43.0349 17.2255C42.9695 17.5382 42.9089 17.8217 42.8529 18.076C42.7992 18.3303 42.7432 18.5952 42.6849 18.8705L42.5204 18.2755H43.4584C43.715 18.2755 43.9414 18.2755 44.1374 18.2755C44.3357 18.2755 44.5189 18.2755 44.6869 18.2755C44.8549 18.2755 45.0264 18.2755 45.2014 18.2755L45.0474 19H41.8309ZM45.8572 19C45.9156 18.727 45.9716 18.4633 46.0252 18.209C46.0789 17.9547 46.1396 17.6712 46.2072 17.3585L46.5607 15.689C46.6307 15.367 46.6926 15.0765 46.7462 14.8175C46.8022 14.5562 46.8594 14.2867 46.9177 14.009H47.7437C47.6854 14.289 47.6282 14.5597 47.5722 14.821C47.5162 15.08 47.4544 15.3693 47.3867 15.689L47.0612 17.2255C46.9959 17.5382 46.9352 17.8217 46.8792 18.076C46.8256 18.3303 46.7696 18.5952 46.7112 18.8705L46.5467 18.2755H47.4847C47.7414 18.2755 47.9677 18.2755 48.1637 18.2755C48.3621 18.2755 48.5452 18.2755 48.7132 18.2755C48.8812 18.2755 49.0527 18.2755 49.2277 18.2755L49.0737 19H45.8572Z" fill="white"/>
</svg>
