<svg width="68" height="30" viewBox="0 0 68 30" fill="none" xmlns="http://www.w3.org/2000/svg">
<path d="M28.8 11V6.728C28.8 6.488 28.7653 6.296 28.696 6.152C28.632 6.00267 28.48 5.928 28.24 5.928H28.12V5.72H30.264C31.3467 5.72 32.1573 5.95467 32.696 6.424C33.2347 6.888 33.504 7.52267 33.504 8.328C33.504 8.85067 33.3893 9.31467 33.16 9.72C32.9307 10.12 32.5893 10.4347 32.136 10.664C31.688 10.888 31.1333 11 30.472 11H28.8ZM30.448 10.696C30.832 10.696 31.1733 10.6027 31.472 10.416C31.7707 10.224 32.0053 9.95467 32.176 9.608C32.352 9.256 32.44 8.84 32.44 8.36C32.44 7.89067 32.3547 7.48267 32.184 7.136C32.0133 6.784 31.776 6.512 31.472 6.32C31.1733 6.12267 30.8267 6.024 30.432 6.024C30.3147 6.024 30.2027 6.02933 30.096 6.04C29.9947 6.05067 29.8667 6.07467 29.712 6.112V10.624C29.8293 10.6453 29.9253 10.6613 30 10.672C30.08 10.6827 30.1547 10.6907 30.224 10.696C30.2933 10.696 30.368 10.696 30.448 10.696ZM40.5725 11.36C40.1885 11.36 39.8792 11.2987 39.6445 11.176C39.4152 11.0587 39.2498 10.8747 39.1485 10.624C39.0525 10.368 39.0045 10.04 39.0045 9.64V6.704L37.1485 11H36.9325L34.8125 6.576V11H34.4445V5.72H35.3325L37.2605 9.744L38.9965 5.72H39.9165V9.64C39.9165 10.1253 39.9645 10.496 40.0605 10.752C40.1618 11.008 40.3325 11.1493 40.5725 11.176V11.36ZM42.0324 11C41.8458 11 41.6991 10.9733 41.5924 10.92C41.4911 10.8613 41.4191 10.76 41.3764 10.616C41.3338 10.4667 41.3124 10.2587 41.3124 9.992V5.72H42.2244V9.992C42.2244 10.232 42.2564 10.4267 42.3204 10.576C42.3898 10.72 42.5444 10.792 42.7844 10.792H42.8964V11H42.0324ZM44.936 11V6.064H44.304C44.0053 6.064 43.7707 6.136 43.6 6.28C43.4347 6.424 43.352 6.66667 43.352 7.008H43.144V6.36C43.144 6.25333 43.1627 6.152 43.2 6.056C43.2373 5.95467 43.304 5.87467 43.4 5.816C43.5013 5.752 43.6427 5.72 43.824 5.72H47.568V6.064H45.84V11H44.936ZM52.049 11.08C51.8677 11.08 51.6943 11.0427 51.529 10.968C51.369 10.8933 51.209 10.7733 51.049 10.608C50.8943 10.4373 50.729 10.208 50.553 9.92L49.753 8.576H49.337V11H48.425V6.728C48.425 6.488 48.3903 6.296 48.321 6.152C48.257 6.00267 48.105 5.928 47.865 5.928H47.745V5.72H49.905C50.0437 5.72 50.2037 5.73067 50.385 5.752C50.5717 5.768 50.7583 5.80533 50.945 5.864C51.1317 5.91733 51.305 5.99733 51.465 6.104C51.625 6.21067 51.753 6.34933 51.849 6.52C51.9503 6.69067 52.001 6.904 52.001 7.16C52.001 7.45333 51.937 7.69067 51.809 7.872C51.681 8.05333 51.5183 8.19467 51.321 8.296C51.1237 8.392 50.9183 8.46667 50.705 8.52L51.545 9.92C51.7477 10.2613 51.9317 10.4907 52.097 10.608C52.2677 10.7253 52.4277 10.7947 52.577 10.816V11C52.5343 11.0213 52.4623 11.04 52.361 11.056C52.2597 11.072 52.1557 11.08 52.049 11.08ZM49.337 8.272H49.857C49.9797 8.272 50.1077 8.25333 50.241 8.216C50.3743 8.17333 50.4997 8.10933 50.617 8.024C50.7343 7.93867 50.8277 7.824 50.897 7.68C50.9717 7.536 51.009 7.36 51.009 7.152C51.009 6.944 50.9717 6.768 50.897 6.624C50.8277 6.48 50.7343 6.36533 50.617 6.28C50.505 6.18933 50.3823 6.12533 50.249 6.088C50.1157 6.04533 49.9877 6.024 49.865 6.024C49.8063 6.024 49.729 6.02933 49.633 6.04C49.537 6.05067 49.4383 6.06667 49.337 6.088V8.272ZM53.8684 11C53.6817 11 53.535 10.9733 53.4284 10.92C53.327 10.8613 53.255 10.76 53.2124 10.616C53.1697 10.4667 53.1484 10.2587 53.1484 9.992V5.72H54.0604V9.992C54.0604 10.232 54.0924 10.4267 54.1564 10.576C54.2257 10.72 54.3804 10.792 54.6204 10.792H54.7324V11H53.8684ZM55.6516 11V6.728C55.6516 6.488 55.6169 6.296 55.5476 6.152C55.4836 6.00267 55.3316 5.928 55.0916 5.928H54.9716V5.72H58.4516C58.6382 5.72 58.7796 5.752 58.8756 5.816C58.9716 5.87467 59.0382 5.95467 59.0756 6.056C59.1129 6.152 59.1316 6.25333 59.1316 6.36V7.008H58.9236C58.9236 6.67733 58.8356 6.43733 58.6596 6.288C58.4889 6.13867 58.2436 6.064 57.9236 6.064H56.5556V8.096H58.6676V8.44H56.5556V10.656H57.9396C58.2596 10.656 58.5236 10.592 58.7316 10.464C58.9396 10.3307 59.1102 10.096 59.2436 9.76L59.4356 9.824L59.1796 10.504C59.1316 10.6587 59.0596 10.7813 58.9636 10.872C58.8676 10.9573 58.7209 11 58.5236 11H55.6516ZM62.0572 11.08L60.1932 6.656C60.0652 6.35733 59.9425 6.14933 59.8252 6.032C59.7079 5.90933 59.5559 5.83733 59.3692 5.816V5.656C59.3905 5.656 59.4385 5.65333 59.5132 5.648C59.5825 5.64267 59.6359 5.64 59.6732 5.64C59.8385 5.64 60.0119 5.66133 60.1932 5.704C60.3799 5.74667 60.5585 5.84 60.7292 5.984C60.9052 6.128 61.0572 6.352 61.1852 6.656L62.4892 9.744L64.2092 5.72H64.6012L62.3052 11.08H62.0572ZM33.016 21.08C32.84 21.08 32.656 21.056 32.464 21.008C32.2773 20.96 32.0773 20.8667 31.864 20.728C31.6507 20.5893 31.416 20.3867 31.16 20.12L29.712 18.608V21H28.8V16.728C28.8 16.488 28.7653 16.296 28.696 16.152C28.632 16.0027 28.48 15.928 28.24 15.928H28.12V15.72H28.984C29.1707 15.72 29.3147 15.7493 29.416 15.808C29.5227 15.8667 29.5973 15.968 29.64 16.112C29.688 16.256 29.712 16.4613 29.712 16.728V18.264L31.216 16.56C31.3387 16.416 31.4667 16.28 31.6 16.152C31.7333 16.024 31.8827 15.92 32.048 15.84C32.2133 15.76 32.4 15.72 32.608 15.72H33.104V15.968C32.832 15.968 32.5893 16.008 32.376 16.088C32.1627 16.1627 31.9573 16.3093 31.76 16.528L30.424 18.04L32.264 19.96C32.4027 20.104 32.5493 20.24 32.704 20.368C32.864 20.496 33.0187 20.6 33.168 20.68C33.3227 20.76 33.4587 20.808 33.576 20.824V21C33.5173 21.0213 33.44 21.04 33.344 21.056C33.248 21.072 33.1387 21.08 33.016 21.08ZM34.8684 21C34.6817 21 34.535 20.9733 34.4284 20.92C34.327 20.8613 34.255 20.76 34.2124 20.616C34.1697 20.4667 34.1484 20.2587 34.1484 19.992V15.72H35.0604V19.992C35.0604 20.232 35.0924 20.4267 35.1564 20.576C35.2257 20.72 35.3804 20.792 35.6204 20.792H35.7324V21H34.8684ZM40.2756 21.08C40.0942 21.08 39.9209 21.0427 39.7556 20.968C39.5956 20.8933 39.4356 20.7733 39.2756 20.608C39.1209 20.4373 38.9556 20.208 38.7796 19.92L37.9796 18.576H37.5636V21H36.6516V16.728C36.6516 16.488 36.6169 16.296 36.5476 16.152C36.4836 16.0027 36.3316 15.928 36.0916 15.928H35.9716V15.72H38.1316C38.2702 15.72 38.4302 15.7307 38.6116 15.752C38.7982 15.768 38.9849 15.8053 39.1716 15.864C39.3582 15.9173 39.5316 15.9973 39.6916 16.104C39.8516 16.2107 39.9796 16.3493 40.0756 16.52C40.1769 16.6907 40.2276 16.904 40.2276 17.16C40.2276 17.4533 40.1636 17.6907 40.0356 17.872C39.9076 18.0533 39.7449 18.1947 39.5476 18.296C39.3502 18.392 39.1449 18.4667 38.9316 18.52L39.7716 19.92C39.9742 20.2613 40.1582 20.4907 40.3236 20.608C40.4942 20.7253 40.6542 20.7947 40.8036 20.816V21C40.7609 21.0213 40.6889 21.04 40.5876 21.056C40.4862 21.072 40.3822 21.08 40.2756 21.08ZM37.5636 18.272H38.0836C38.2062 18.272 38.3342 18.2533 38.4676 18.216C38.6009 18.1733 38.7262 18.1093 38.8436 18.024C38.9609 17.9387 39.0542 17.824 39.1236 17.68C39.1982 17.536 39.2356 17.36 39.2356 17.152C39.2356 16.944 39.1982 16.768 39.1236 16.624C39.0542 16.48 38.9609 16.3653 38.8436 16.28C38.7316 16.1893 38.6089 16.1253 38.4756 16.088C38.3422 16.0453 38.2142 16.024 38.0916 16.024C38.0329 16.024 37.9556 16.0293 37.8596 16.04C37.7636 16.0507 37.6649 16.0667 37.5636 16.088V18.272ZM42.0949 21C41.9083 21 41.7616 20.9733 41.6549 20.92C41.5536 20.8613 41.4816 20.76 41.4389 20.616C41.3963 20.4667 41.3749 20.2587 41.3749 19.992V15.72H42.2869V19.992C42.2869 20.232 42.3189 20.4267 42.3829 20.576C42.4523 20.72 42.6069 20.792 42.8469 20.792H42.9589V21H42.0949ZM43.8781 21V16.728C43.8781 16.488 43.8435 16.296 43.7741 16.152C43.7101 16.0027 43.5581 15.928 43.3181 15.928H43.1981V15.72H44.0621C44.2488 15.72 44.3928 15.7493 44.4941 15.808C44.6008 15.8667 44.6755 15.968 44.7181 16.112C44.7608 16.256 44.7821 16.4613 44.7821 16.728V20.656H47.5741V21H43.8781ZM48.2609 21V16.728C48.2609 16.488 48.2263 16.296 48.1569 16.152C48.0929 16.0027 47.9409 15.928 47.7009 15.928H47.5809V15.72H48.4449C48.6316 15.72 48.7756 15.7493 48.8769 15.808C48.9836 15.8667 49.0583 15.968 49.1009 16.112C49.1436 16.256 49.1649 16.4613 49.1649 16.728V20.656H51.9569V21H48.2609Z" fill="white"/>
<path d="M11 13C6.30827 13 2 19.5 2 21" stroke="#328873" stroke-width="2"/>
<path d="M2 4.6C2 9.46214 8.66667 12.065 12 13" stroke="#328873" stroke-width="2"/>
<path d="M7.528 5.28V4.608H12.4C15.744 4.624 17.536 4.656 17.776 4.704L18.064 4.776C19.552 5.096 20.832 5.88 21.904 7.128C23.024 8.44 23.704 10.032 23.944 11.904C24.008 12.432 24.016 13.032 23.968 13.704C23.952 13.768 23.944 13.816 23.944 13.848C23.72 15.832 22.968 17.48 21.688 18.792C20.568 19.96 19.208 20.672 17.608 20.928C17.4 20.96 15.664 20.984 12.4 21H7.528V20.328V19.656H8.2C9.32 19.656 9.912 19.6 9.976 19.488V6.12C9.912 6.008 9.32 5.952 8.2 5.952H7.528V5.28ZM16.72 6C16.608 5.984 15.976 5.968 14.824 5.952L13 5.976C12.84 5.992 12.744 6.032 12.712 6.096C12.68 6.128 12.664 8.368 12.664 12.816V19.464L12.712 19.512C12.776 19.592 13.128 19.632 13.768 19.632C13.928 19.632 14.24 19.632 14.704 19.632C16 19.632 16.832 19.592 17.2 19.512C17.232 19.496 17.28 19.48 17.344 19.464C18.224 19.256 18.96 18.84 19.552 18.216C20.336 17.4 20.8 16.176 20.944 14.544C20.992 13.92 21 13.024 20.968 11.856C20.952 11.056 20.872 10.368 20.728 9.792C20.312 7.92 19.224 6.712 17.464 6.168C17.224 6.104 16.976 6.048 16.72 6Z" fill="#328873"/>
</svg>
