<svg width="67" height="29" viewBox="0 0 67 29" fill="none" xmlns="http://www.w3.org/2000/svg">
<path d="M9.776 3.632C9.808 3.616 11.416 3.608 14.6 3.608C17.88 3.624 19.632 3.656 19.856 3.704C19.872 3.704 19.96 3.728 20.12 3.776C20.776 3.92 21.336 4.16 21.8 4.496C23.304 5.504 24.128 7.024 24.272 9.056C24.304 9.328 24.312 9.608 24.296 9.896C24.216 12.232 23.36 14.376 21.728 16.328C21.344 16.808 20.88 17.28 20.336 17.744C18.832 18.96 17.24 19.696 15.56 19.952C15.4 19.968 13.744 19.984 10.592 20C7.424 20 5.8 19.952 5.72 19.856C5.688 19.808 5.704 19.624 5.768 19.304C5.848 18.952 5.928 18.752 6.008 18.704C6.088 18.672 6.376 18.656 6.872 18.656C7.768 18.64 8.272 18.576 8.384 18.464C8.432 18.432 9.008 16.208 10.112 11.792C11.216 7.376 11.768 5.152 11.768 5.12C11.768 5.104 11.752 5.08 11.72 5.048C11.656 5.016 11.224 4.984 10.424 4.952H9.608L9.512 4.856C9.448 4.792 9.456 4.584 9.536 4.232C9.632 3.864 9.712 3.664 9.776 3.632ZM18.2 4.976H14.648C14.488 4.992 14.384 5.04 14.336 5.12L10.976 18.56C10.976 18.592 11.008 18.616 11.072 18.632L14.96 18.608C14.992 18.608 15.016 18.608 15.032 18.608C16.12 18.464 17.064 18.12 17.864 17.576C18.184 17.368 18.504 17.104 18.824 16.784C19.72 15.888 20.424 14.528 20.936 12.704C21.256 11.552 21.472 10.576 21.584 9.776C21.68 9.024 21.68 8.384 21.584 7.856C21.44 7.12 21.144 6.512 20.696 6.032C20.056 5.424 19.224 5.072 18.2 4.976Z" fill="#328873"/>
<path d="M11 12C5.52632 12 2.05263 16.6667 1 19" stroke="#328873" stroke-width="2"/>
<path d="M4 4C4 8.92632 9.33333 12.0526 12 13" stroke="#328873" stroke-width="2"/>
<path d="M0.542955 18.9688C0.542955 18.9364 0.542955 18.9041 0.542955 18.8717C0.542955 18.8585 0.542877 18.8982 0.542521 18.9115C0.539818 19.0122 0.527453 19.112 0.506497 19.2105C0.502205 19.2307 0.451151 19.4506 0.40602 19.4197C0.374825 19.3984 0.369304 19.3386 0.365004 19.306C0.354449 19.2259 0.35439 19.144 0.355889 19.0634C0.357078 18.9995 0.360025 18.935 0.373901 18.8724C0.385855 18.8185 0.408909 18.7681 0.432278 18.7183C0.440421 18.701 0.454174 18.651 0.471124 18.6413C0.474481 18.6394 0.472643 18.6489 0.472643 18.6528C0.472643 18.6629 0.472643 18.673 0.472643 18.6832C0.472643 18.76 0.447208 18.8206 0.415785 18.8908C0.390041 18.9484 0.365091 19.0066 0.336792 19.0629C0.325576 19.0853 0.313076 19.1151 0.293172 19.1317C0.263849 19.1562 0.255065 19.0759 0.253893 19.0638C0.242495 18.946 0.250812 18.8321 0.2795 18.7179C0.284954 18.6962 0.290252 18.6744 0.295993 18.6528C0.297954 18.6454 0.305948 18.6279 0.298598 18.63C0.284151 18.6341 0.294217 18.7102 0.295125 18.7201C0.301399 18.7882 0.30275 18.8562 0.296862 18.9245C0.295087 18.945 0.298048 19.0028 0.280368 19.0187C0.272245 19.026 0.27404 18.9968 0.276462 18.9861C0.295844 18.9008 0.343916 18.8106 0.394301 18.7394C0.410407 18.7166 0.443569 18.6819 0.457018 18.7261C0.470395 18.7701 0.473955 18.8188 0.478719 18.8641C0.487178 18.9448 0.489866 19.0258 0.49608 19.1066C0.498569 19.1389 0.501621 19.1712 0.503893 19.2036C0.504916 19.2181 0.507637 19.2308 0.507799 19.207C0.508733 19.0698 0.517029 18.9383 0.5499 18.8047C0.550234 18.8033 0.563852 18.7241 0.576375 18.7355C0.588652 18.7466 0.591983 18.7767 0.596341 18.7912C0.614468 18.8517 0.629395 18.9124 0.642348 18.9742C0.653834 19.0289 0.66545 19.0835 0.679023 19.1378C0.686089 19.1661 0.686448 19.1668 0.692478 19.1921C0.694911 19.2023 0.694586 19.2302 0.701375 19.2222C0.708226 19.2142 0.703 19.2011 0.703112 19.1905C0.703589 19.1452 0.703555 19.0998 0.705499 19.0545C0.707921 18.998 0.715895 18.9428 0.733494 18.8889C0.73674 18.8789 0.745496 18.8476 0.759969 18.8442C0.770467 18.8417 0.779272 18.8939 0.779717 18.8961C0.803067 19.0085 0.797388 19.1245 0.822035 19.2365C0.824568 19.2481 0.827374 19.2556 0.830282 19.2376C0.83817 19.1889 0.842515 19.1401 0.854587 19.092C0.856999 19.0824 0.897918 18.9634 0.907105 18.9848C0.931432 19.0416 0.921862 19.1204 0.921862 19.1806C0.921862 19.1876 0.924875 19.2732 0.915568 19.2689C0.906145 19.2645 0.901696 19.2516 0.898424 19.2428C0.886109 19.2098 0.878614 19.1747 0.871948 19.1402C0.850411 19.0287 0.832575 18.921 0.771688 18.822C0.736525 18.7649 0.695526 18.7387 0.62911 18.7576C0.54977 18.7802 0.47645 18.8392 0.429674 18.9062C0.406933 18.9389 0.374937 18.958 0.361315 18.9961C0.349508 19.0292 0.329157 19.0523 0.307278 19.0794C0.278021 19.1158 0.215054 19.1321 0.172079 19.1092C0.166685 19.1063 0.122026 19.0772 0.136705 19.0694C0.147704 19.0636 0.159782 19.0706 0.163832 19.0564C0.168539 19.0399 0.156237 19.024 0.156237 19.0078C0.156237 18.9963 0.153948 18.982 0.156454 18.9707C0.161161 18.9495 0.174551 18.9282 0.175768 18.9062C0.176605 18.8912 0.187487 18.8767 0.187487 18.8613C0.187487 18.8501 0.19329 18.8304 0.198337 18.8203C0.215867 18.7853 0.213907 18.7405 0.241306 18.7101C0.253022 18.6971 0.255216 18.6749 0.263658 18.6599C0.272392 18.6444 0.27884 18.6115 0.296862 18.6055" stroke="#328873" stroke-width="0.25" stroke-linecap="round"/>
<path d="M0.230469 18.5195C0.219383 18.5306 0.191776 18.5466 0.187717 18.5608C0.18395 18.5739 0.183071 18.5763 0.174045 18.5879C0.169455 18.5938 0.158451 18.6046 0.156467 18.6115C0.155297 18.6156 0.153153 18.6306 0.150391 18.6328C0.145312 18.6369 0.149798 18.6477 0.1454 18.6532C0.141129 18.6586 0.137122 18.6728 0.136719 18.6797C0.135887 18.6938 0.122707 18.7089 0.121094 18.7227C0.119265 18.7382 0.108749 18.7518 0.105252 18.7676C0.1013 18.7854 0.0909363 18.8018 0.0861548 18.8186C0.0815657 18.8346 0.0820316 18.8515 0.0820316 18.8691C0.0820316 18.8836 0.0703658 18.9031 0.0666236 18.9162C0.0616445 18.9337 0.0676283 18.9546 0.0633684 18.9727C0.0613302 18.9813 0.0551794 18.9912 0.0546878 19C0.0538631 19.0148 0.0546878 18.989 0.0546878 18.9844C0.0546878 18.9515 0.0670634 18.9199 0.074002 18.8887C0.0804327 18.8597 0.0934772 18.8236 0.112413 18.7999C0.123448 18.7861 0.122079 18.7584 0.129775 18.7422C0.136679 18.7276 0.140864 18.6952 0.15625 18.6875" stroke="#328873" stroke-width="0.1" stroke-linecap="round"/>
<path d="M0.195317 18.5704C0.185331 18.5704 0.187007 18.5632 0.187505 18.5547C0.187885 18.5483 0.180965 18.5615 0.173833 18.5662C0.166998 18.5708 0.161119 18.5755 0.155387 18.5812C0.149893 18.5867 0.151069 18.5979 0.146489 18.6016C0.14083 18.6061 0.129813 18.6369 0.128911 18.6446C0.127476 18.6568 0.12334 18.6757 0.11806 18.6875C0.111404 18.7025 0.10938 18.72 0.10938 18.7364C0.10938 18.7541 0.0976612 18.772 0.0976612 18.7911C0.0976612 18.8159 0.0834105 18.8386 0.0820362 18.8633C0.0812518 18.8774 0.0766405 18.8946 0.0724876 18.9082C0.0662161 18.9288 0.0703174 18.9559 0.0703174 18.9766" stroke="#328873" stroke-width="0.1" stroke-linecap="round"/>
<path d="M0.0663926 19.0664C0.0663926 19.0424 0.0546738 19.0193 0.0546738 18.9961C0.0546738 18.99 0.0514394 18.9862 0.0507676 18.9805C0.0503971 18.9773 0.0421717 18.9727 0.0453422 18.9727C0.0531159 18.9727 0.0546738 19.003 0.0546738 18.9883C0.0546738 18.9458 0.0495159 18.8986 0.0683457 18.8572C0.0776638 18.8367 0.0829514 18.8114 0.0861408 18.7891C0.0895019 18.7655 0.100539 18.7438 0.105672 18.7207C0.111373 18.6951 0.134406 18.673 0.140611 18.6482C0.144299 18.6335 0.164802 18.5703 0.179674 18.5703" stroke="#328873" stroke-width="0.1" stroke-linecap="round"/>
<path d="M6.2037 18.9969C5.75453 18.9969 5.30537 18.9969 4.8562 18.9969C4.84996 18.9969 4.75879 18.9998 4.78876 18.9881C4.80538 18.9816 4.82358 18.9802 4.84122 18.9796C4.92922 18.9765 5.01774 18.9794 5.10576 18.9793C5.26567 18.979 5.42505 18.9765 5.58436 18.9613C5.67764 18.9525 5.7703 18.938 5.86356 18.9291C5.9095 18.9247 5.95786 18.9244 6.00398 18.9268C6.03211 18.9283 6.0557 18.9441 6.08315 18.9441C6.12049 18.9441 6.07996 18.9441 6.06523 18.9441C5.82525 18.9441 5.58615 18.9618 5.34718 18.9828C5.04948 19.0091 4.75384 19.0379 4.45482 19.0379C4.4481 19.0379 4.37462 19.0379 4.41768 19.0379C4.56024 19.0379 4.70255 19.032 4.84513 19.032C4.87684 19.032 4.851 19.032 4.8347 19.032C4.79191 19.032 4.74913 19.032 4.70634 19.032C4.52638 19.032 4.34658 19.0336 4.16682 19.0236C3.81836 19.004 3.46936 19.0135 3.12102 18.991C2.95298 18.9801 2.78607 18.9616 2.61864 18.9444C2.54484 18.9368 2.47328 18.9308 2.40133 18.9121C2.35995 18.9014 2.29899 18.9031 2.25831 18.9102C2.2351 18.9142 2.21183 18.9182 2.18826 18.9206C2.14974 18.9246 2.10448 18.9185 2.06707 18.9268C2.03568 18.9338 2.13075 18.9364 2.16285 18.9382C2.33291 18.9478 2.50181 18.9632 2.67044 18.9877C2.76612 19.0016 2.86188 19.0132 2.95551 19.0379C3.02531 19.0563 2.87809 19.0449 2.87276 19.0444C2.71654 19.0291 2.56037 19.0183 2.40361 19.0099C2.24163 19.0012 2.07864 18.9972 1.91883 18.9669C1.859 18.9555 1.78243 18.9464 1.72857 18.9147C1.71162 18.9048 1.72918 18.9036 1.73801 18.9063C2.01549 18.9907 2.31434 18.989 2.59518 19.0601C2.65132 19.0743 2.71448 19.0965 2.77307 19.0965C2.78209 19.0965 2.755 19.0965 2.74603 19.0956C2.65133 19.0861 2.55642 19.0666 2.46226 19.0529C2.25232 19.0224 2.02707 18.9999 1.82891 18.9187C1.75821 18.8897 1.84029 18.8972 1.87126 18.8972C2.0476 18.8972 2.22274 18.8732 2.39905 18.8691C2.57195 18.8651 2.75075 18.8567 2.92098 18.8926C2.96394 18.9017 3.09357 18.9206 3.04967 18.9206C2.91682 18.9206 2.78372 18.9147 2.65089 18.9118C2.48725 18.9083 2.32458 18.9061 2.16122 18.8975C2.12586 18.8956 2.20377 18.8972 2.21172 18.8972C2.59018 18.8972 2.96637 18.9079 3.34451 18.9252C3.52345 18.9334 3.70249 18.9352 3.88142 18.9441C3.91513 18.9457 3.95757 18.9428 3.98926 18.9555C3.99114 18.9562 3.97407 18.9558 3.97395 18.9558C3.92435 18.9558 3.87495 18.9486 3.82539 18.9467C3.48338 18.9337 3.13942 18.9441 2.79718 18.9441C2.75597 18.9441 2.7126 18.9477 2.67142 18.9437C2.66262 18.9429 2.65982 18.9385 2.67012 18.9382C2.7523 18.936 2.83487 18.9382 2.91707 18.9382C3.19196 18.9382 3.46446 18.9563 3.7384 18.9793C4.04402 19.0049 4.34975 19.03 4.65389 19.0702C4.74733 19.0825 4.84344 19.0945 4.9357 19.1141C4.95455 19.1181 4.9705 19.1259 4.98978 19.1259C5.04133 19.1259 4.88752 19.1127 4.83633 19.1066C4.6284 19.0821 4.421 19.0487 4.21439 19.0151C4.026 18.9844 3.83789 18.9526 3.65337 18.9033C3.59026 18.8865 3.52696 18.8711 3.4631 18.8574C3.44866 18.8543 3.48247 18.8561 3.4833 18.8561C3.59119 18.8561 3.69949 18.8617 3.80714 18.8682C4.08115 18.8847 4.35345 18.9524 4.62815 18.9558C4.67266 18.9564 4.63128 18.9691 4.67865 18.9525C4.68882 18.949 4.71842 18.9378 4.70764 18.9382C4.65785 18.94 4.6123 18.9611 4.56169 18.9617C4.51398 18.9622 4.46514 18.9529 4.42094 18.9382" stroke="#328873" stroke-width="0.1" stroke-linecap="round"/>
<path d="M6.14506 18.8503C5.71631 18.8503 5.28756 18.8503 4.85882 18.8503C4.73544 18.8503 4.61017 18.8443 4.48741 18.8588C4.37694 18.8719 4.26837 18.9018 4.15705 18.9077C4.0858 18.9114 4.01402 18.909 3.94268 18.909C3.94084 18.909 3.90774 18.9118 3.90619 18.9077C3.90219 18.897 3.92868 18.9032 3.94007 18.9031C3.98046 18.9027 4.02088 18.9031 4.06127 18.9031C4.2954 18.9031 4.52955 18.9025 4.76368 18.9031C4.87792 18.9034 5.0012 18.907 5.10707 18.9572C5.11312 18.9601 5.13331 18.9618 5.12662 18.9618C5.04775 18.9618 4.96896 18.9584 4.89009 18.9572C4.67402 18.954 4.45785 18.9559 4.24176 18.9559C4.23199 18.9559 4.20267 18.9556 4.21244 18.9559C4.26282 18.9572 4.31321 18.9606 4.36361 18.9621C4.72101 18.9729 5.08292 18.9798 5.43841 19.0204C5.45569 19.0224 5.47279 19.0263 5.49021 19.0263C5.50339 19.0263 5.46428 19.0215 5.45144 19.0184C5.37446 19.0004 5.29767 18.9836 5.21947 18.9715C5.09686 18.9526 4.97232 18.9489 4.85002 18.9298C4.83003 18.9267 4.83962 18.9269 4.85067 18.9262C4.87813 18.9246 4.90521 18.9215 4.93277 18.921C5.14404 18.9171 5.77775 18.9031 5.56644 18.9031C5.39398 18.9031 5.22183 18.9251 5.04908 18.9266C5.03065 18.9267 4.95129 18.9265 4.95265 18.9266C5.04506 18.9285 5.13684 18.938 5.22957 18.9383C5.38606 18.9388 5.54256 18.9383 5.69904 18.9383C5.7263 18.9383 5.75356 18.9383 5.78082 18.9383C5.80416 18.9383 5.77004 18.9365 5.76388 18.9354C5.68916 18.922 5.60215 18.9283 5.5267 18.9269C5.17249 18.9204 4.81812 18.9228 4.46395 18.9119C4.33051 18.9078 4.19672 18.9052 4.06322 18.9034C3.91389 18.9015 3.76566 18.886 3.61623 18.8855C3.45101 18.885 3.28417 18.9051 3.12167 18.8784C2.86787 18.8366 2.61421 18.8034 2.35931 18.7689C2.32313 18.764 2.21596 18.7461 2.25245 18.7448C2.30452 18.7429 2.35474 18.7607 2.40427 18.7741C2.53089 18.8085 2.6543 18.8308 2.7848 18.8432C2.87002 18.8513 2.95456 18.8621 3.04023 18.8621C3.05065 18.8621 3.08193 18.8621 3.0715 18.8621C2.99016 18.8621 2.90882 18.8621 2.82748 18.8621C2.61832 18.8621 2.40916 18.8621 2.2 18.8621C2.18777 18.8621 2.10766 18.8565 2.10845 18.8562C2.15196 18.8404 2.21014 18.8438 2.25538 18.8383C2.43013 18.8171 2.60584 18.8074 2.78187 18.8096C2.86453 18.8107 3.1112 18.8256 3.02882 18.8324C2.8975 18.8434 2.76336 18.8471 2.63168 18.8438C2.57216 18.8424 2.5125 18.838 2.45347 18.8301C2.43541 18.8277 2.41672 18.821 2.39841 18.821C2.29963 18.821 2.20064 18.8401 2.10454 18.8093C2.09864 18.8074 2.07285 18.8052 2.08239 18.8021C2.11117 18.7929 2.14601 18.7939 2.17556 18.793C2.3485 18.7876 2.52188 18.7926 2.69488 18.7917C2.86267 18.7908 3.02995 18.78 3.19791 18.78C3.25677 18.78 3.43335 18.78 3.37449 18.78C3.29079 18.78 3.20994 18.7877 3.12656 18.7982C3.04364 18.8087 2.94733 18.8399 2.86397 18.8213C2.85653 18.8197 2.84816 18.8228 2.84084 18.8207C2.83696 18.8196 2.88747 18.8219 2.89688 18.8243C3.08632 18.8731 3.28681 18.8973 3.48266 18.8973C3.48731 18.8973 3.51547 18.9011 3.51752 18.894C3.52167 18.8794 3.48452 18.8677 3.47581 18.8656C3.37937 18.8428 3.26591 18.8564 3.16794 18.8529C3.10863 18.8509 3.04902 18.8486 2.99005 18.8415C2.98891 18.8414 2.94955 18.8334 2.95096 18.8331C3.00589 18.8221 3.07623 18.8436 3.12917 18.8533C3.27335 18.8796 3.41838 18.8948 3.56508 18.8969C3.68987 18.8987 4.06422 18.9031 3.93942 18.9031C3.79058 18.9031 3.64389 18.8816 3.49569 18.8705C3.3153 18.857 3.1343 18.8503 2.95422 18.8327C2.80541 18.8183 2.66608 18.7667 2.5183 18.7519C2.42837 18.743 2.35559 18.7144 2.26646 18.7415C2.19452 18.7634 2.41639 18.7272 2.49159 18.7272C2.64536 18.7272 2.80012 18.7224 2.95356 18.7317C3.01458 18.7355 3.07622 18.7331 3.13731 18.7331C3.16672 18.7331 3.20873 18.7252 3.23635 18.7376C3.2517 18.7445 3.25906 18.7424 3.2774 18.7402C3.31397 18.7359 3.35212 18.7389 3.38883 18.7389C3.51415 18.7389 3.63947 18.7389 3.76479 18.7389C4.06982 18.7389 4.371 18.7352 4.67442 18.7519C4.94568 18.7669 5.21874 18.7565 5.49216 18.7565C5.58947 18.7565 5.68677 18.7565 5.78408 18.7565C5.84477 18.7565 5.9094 18.7501 5.96978 18.7568C5.99048 18.7591 6.1216 18.7544 6.1216 18.7741" stroke="#328873" stroke-width="0.1" stroke-linecap="round"/>
<path d="M3.40643 18.8151C3.64741 18.8151 3.88565 18.8327 4.12644 18.8327C4.2877 18.8327 4.44805 18.8503 4.60992 18.8503C4.65282 18.8503 4.56891 18.8314 4.5591 18.8297C4.48614 18.8172 4.41019 18.8216 4.33658 18.8089C4.299 18.8024 4.2605 18.7965 4.2232 18.7887C4.20423 18.7847 4.21888 18.7858 4.22874 18.7858C4.27314 18.7858 4.32059 18.789 4.36492 18.7929C4.52349 18.807 4.68392 18.8034 4.84319 18.8034" stroke="#328873" stroke-width="0.1" stroke-linecap="round"/>
<line x1="3" y1="3.815" x2="10" y2="3.815" stroke="#328873" stroke-width="0.37"/>
<path d="M27.2205 11C27.2788 10.7293 27.3348 10.4668 27.3885 10.2125C27.4422 9.95583 27.5028 9.67117 27.5705 9.3585L27.924 7.689C27.9917 7.367 28.0535 7.07417 28.1095 6.8105C28.1655 6.54683 28.2227 6.27967 28.281 6.009C28.4583 6.009 28.6357 6.009 28.813 6.009C28.9927 6.009 29.1735 6.009 29.3555 6.009C29.5375 6.009 29.7218 6.009 29.9085 6.009C30.3145 6.009 30.6633 6.08017 30.955 6.2225C31.2467 6.3625 31.4788 6.55617 31.6515 6.8035C31.8265 7.05083 31.9397 7.33433 31.991 7.654C32.0447 7.97367 32.0342 8.31433 31.9595 8.676C31.8872 9.03067 31.7798 9.3515 31.6375 9.6385C31.4975 9.92317 31.3132 10.167 31.0845 10.37C30.8558 10.573 30.5712 10.7293 30.2305 10.839C29.8898 10.9463 29.4803 11 29.002 11C28.7757 11 28.5633 11 28.365 11C28.169 11 27.9777 11 27.791 11C27.6067 11 27.4165 11 27.2205 11ZM28.19 10.328H29.072C29.5107 10.328 29.8665 10.2568 30.1395 10.1145C30.4148 9.96983 30.6283 9.768 30.78 9.509C30.934 9.24767 31.0472 8.94083 31.1195 8.5885C31.1755 8.33183 31.1895 8.08917 31.1615 7.8605C31.1335 7.63183 31.0623 7.42883 30.948 7.2515C30.8337 7.07183 30.6738 6.93183 30.4685 6.8315C30.2655 6.73117 30.0135 6.681 29.7125 6.681H28.96C28.9203 6.86533 28.8807 7.04967 28.841 7.234C28.8037 7.41833 28.7605 7.62367 28.7115 7.85L28.4315 9.173C28.3872 9.39467 28.3452 9.59767 28.3055 9.782C28.2682 9.96633 28.2297 10.1483 28.19 10.328ZM32.1283 11C32.2169 10.7363 32.3056 10.4715 32.3943 10.2055C32.4829 9.9395 32.5774 9.65483 32.6778 9.3515L33.2343 7.6925C33.3346 7.38917 33.4291 7.1045 33.5178 6.8385C33.6064 6.57017 33.6986 6.29367 33.7943 6.009H34.5993C34.6623 6.34733 34.7229 6.6705 34.7813 6.9785C34.8396 7.2865 34.8968 7.5945 34.9528 7.9025L35.2923 9.712H35.3518L36.4403 7.899C36.6223 7.591 36.8054 7.28417 36.9898 6.9785C37.1741 6.67283 37.3678 6.34967 37.5708 6.009H38.4248C38.4014 6.289 38.3781 6.56317 38.3548 6.8315C38.3314 7.0975 38.3058 7.3845 38.2778 7.6925L38.1343 9.362C38.1109 9.663 38.0876 9.943 38.0643 10.202C38.0409 10.461 38.0176 10.727 37.9943 11H37.2103C37.2476 10.5917 37.2826 10.202 37.3153 9.831C37.3479 9.46 37.3783 9.117 37.4063 8.802L37.5253 7.423H37.4693L36.5978 8.9035C36.3854 9.26517 36.1731 9.62683 35.9608 9.9885C35.7508 10.3478 35.5524 10.685 35.3658 11H34.8128C34.7778 10.7993 34.7381 10.5823 34.6938 10.349C34.6494 10.1133 34.6039 9.873 34.5573 9.628C34.5129 9.383 34.4686 9.14617 34.4243 8.9175L34.1443 7.423H34.0883L33.6298 8.802C33.5248 9.124 33.4116 9.46817 33.2903 9.8345C33.1689 10.2008 33.0394 10.5893 32.9018 11H32.1283ZM39.0265 11C39.0848 10.7247 39.1408 10.461 39.1945 10.209C39.2482 9.95467 39.3088 9.67 39.3765 9.355L39.73 7.689C39.8 7.367 39.8618 7.0765 39.9155 6.8175C39.9715 6.55617 40.0287 6.28667 40.087 6.009H40.9235C40.8652 6.28433 40.808 6.55383 40.752 6.8175C40.6983 7.07883 40.6365 7.36933 40.5665 7.689L40.213 9.355C40.1453 9.67 40.0847 9.95467 40.031 10.209C39.9797 10.461 39.9237 10.7247 39.863 11H39.0265ZM42.3198 11C42.3781 10.7293 42.4341 10.4668 42.4878 10.2125C42.5414 9.95583 42.6009 9.67117 42.6663 9.3585L42.9988 7.801C43.0664 7.48367 43.1271 7.1955 43.1808 6.9365C43.2344 6.6775 43.2916 6.41033 43.3523 6.135L43.5378 6.7335H42.9218C42.6464 6.7335 42.4026 6.7335 42.1903 6.7335C41.9779 6.7335 41.7761 6.7335 41.5848 6.7335L41.7353 6.009H45.8268L45.6728 6.7335C45.4814 6.7335 45.2796 6.7335 45.0673 6.7335C44.8573 6.7335 44.6134 6.7335 44.3358 6.7335H43.7198L44.1713 6.135C44.1129 6.41033 44.0558 6.6775 43.9998 6.9365C43.9461 7.1955 43.8854 7.48367 43.8178 7.801L43.4888 9.3585C43.4211 9.67117 43.3604 9.95583 43.3068 10.2125C43.2531 10.4668 43.1971 10.7293 43.1388 11H42.3198ZM45.5648 11C45.6232 10.727 45.6792 10.4633 45.7328 10.209C45.7865 9.95467 45.846 9.67117 45.9113 9.3585L46.2648 7.689C46.3325 7.36467 46.3943 7.073 46.4503 6.814C46.5063 6.555 46.5635 6.28667 46.6218 6.009C46.7572 6.009 46.9123 6.009 47.0873 6.009C47.2647 6.009 47.4572 6.009 47.6648 6.009C47.8725 6.009 48.093 6.009 48.3263 6.009C48.716 6.009 49.0357 6.07083 49.2853 6.1945C49.535 6.31817 49.7077 6.4955 49.8033 6.7265C49.9013 6.9575 49.9153 7.23517 49.8453 7.5595C49.7847 7.8465 49.682 8.0915 49.5373 8.2945C49.395 8.49517 49.1885 8.64917 48.9178 8.7565C48.6495 8.8615 48.2983 8.91283 47.8643 8.9105L48.2038 8.571L48.7498 9.5615C48.8338 9.7155 48.9237 9.87883 49.0193 10.0515C49.115 10.2242 49.2072 10.3933 49.2958 10.559C49.3868 10.7247 49.4673 10.8717 49.5373 11H48.6168C48.5095 10.7947 48.4068 10.5975 48.3088 10.4085C48.2108 10.2195 48.1152 10.0317 48.0218 9.845L47.3988 8.634L47.8153 9.0785H46.6218L46.7653 8.41H47.7488C47.9985 8.41 48.2062 8.3855 48.3718 8.3365C48.5398 8.28517 48.6728 8.19767 48.7708 8.074C48.8688 7.95033 48.9423 7.77533 48.9913 7.549C49.0287 7.37167 49.0287 7.227 48.9913 7.115C48.9563 7.00067 48.8968 6.912 48.8128 6.849C48.7288 6.786 48.6308 6.74167 48.5188 6.716C48.4092 6.69033 48.2972 6.6775 48.1828 6.6775H46.7268L47.3988 6.135C47.3405 6.41033 47.2833 6.6775 47.2273 6.9365C47.1737 7.1955 47.1142 7.48017 47.0488 7.7905L46.7163 9.3585C46.651 9.67117 46.5915 9.95467 46.5378 10.209C46.4842 10.461 46.4282 10.7247 46.3698 11H45.5648ZM50.3195 11C50.3778 10.7247 50.4338 10.461 50.4875 10.209C50.5411 9.95467 50.6018 9.67 50.6695 9.355L51.023 7.689C51.093 7.367 51.1548 7.0765 51.2085 6.8175C51.2645 6.55617 51.3216 6.28667 51.38 6.009H52.2165C52.1581 6.28433 52.101 6.55383 52.045 6.8175C51.9913 7.07883 51.9295 7.36933 51.8595 7.689L51.506 9.355C51.4383 9.67 51.3776 9.95467 51.324 10.209C51.2726 10.461 51.2166 10.7247 51.156 11H50.3195ZM52.3597 11C52.4157 10.727 52.4706 10.4633 52.5242 10.209C52.5802 9.95467 52.6409 9.67117 52.7062 9.3585L53.0597 7.6925C53.1274 7.37283 53.1892 7.0835 53.2452 6.8245C53.3012 6.56317 53.3584 6.29133 53.4167 6.009H56.5912L56.4407 6.702C56.2144 6.702 55.9717 6.702 55.7127 6.702C55.4561 6.702 55.1516 6.702 54.7992 6.702H53.6127L54.1937 6.128C54.1354 6.408 54.0782 6.6775 54.0222 6.9365C53.9686 7.1955 53.9079 7.4825 53.8402 7.7975L53.5392 9.229C53.4739 9.53933 53.4144 9.82167 53.3607 10.076C53.3071 10.3303 53.2511 10.5928 53.1927 10.8635L52.9057 10.307H54.1062C54.4026 10.307 54.6826 10.307 54.9462 10.307C55.2099 10.307 55.4631 10.307 55.7057 10.307L55.5517 11H52.3597ZM53.4412 8.809L53.5847 8.1405H54.5367C54.8517 8.1405 55.1236 8.1405 55.3522 8.1405C55.5832 8.1405 55.8037 8.1405 56.0137 8.1405L55.8737 8.809C55.6474 8.809 55.4199 8.809 55.1912 8.809C54.9649 8.809 54.6977 8.809 54.3897 8.809H53.4412ZM57.8178 11C57.7875 10.7527 57.7537 10.4867 57.7163 10.202C57.679 9.91733 57.644 9.656 57.6113 9.418L57.4083 7.857C57.385 7.67733 57.3593 7.4825 57.3313 7.2725C57.3057 7.0625 57.2777 6.849 57.2473 6.632C57.2193 6.415 57.1925 6.20733 57.1668 6.009H58.0278C58.0675 6.352 58.1083 6.716 58.1503 7.101C58.1947 7.486 58.2367 7.85117 58.2763 8.1965L58.4968 10.1565H58.5668L59.5958 8.186C59.7755 7.84067 59.9622 7.48133 60.1558 7.108C60.3518 6.73233 60.5432 6.366 60.7298 6.009H61.6748C61.5652 6.20733 61.4508 6.415 61.3318 6.632C61.2152 6.84667 61.0997 7.05783 60.9853 7.2655C60.871 7.47317 60.7637 7.66917 60.6633 7.8535L59.8058 9.4145C59.6775 9.6525 59.5352 9.91383 59.3788 10.1985C59.2225 10.4808 59.0755 10.748 58.9378 11H57.8178ZM30.2585 19C30.1045 18.7667 29.9598 18.5485 29.8245 18.3455C29.6915 18.1402 29.5608 17.9383 29.4325 17.74L28.778 16.7425H28.442L28.582 16.0845H28.911L29.8035 15.2585C30.0112 15.0648 30.2177 14.8723 30.423 14.681C30.6283 14.4873 30.8675 14.2633 31.1405 14.009H32.1625C31.8638 14.282 31.5722 14.5492 31.2875 14.8105C31.0052 15.0695 30.724 15.3297 30.444 15.591L29.3625 16.585V16.207L30.115 17.3445C30.234 17.5195 30.36 17.7085 30.493 17.9115C30.626 18.1122 30.7555 18.3082 30.8815 18.4995C31.0098 18.6885 31.1218 18.8553 31.2175 19H30.2585ZM27.2205 19C27.2788 18.7293 27.3348 18.4668 27.3885 18.2125C27.4422 17.9558 27.5028 17.6712 27.5705 17.3585L27.924 15.689C27.9917 15.3693 28.0535 15.0788 28.1095 14.8175C28.1655 14.5562 28.2227 14.2867 28.281 14.009H29.1C29.0417 14.2843 28.9845 14.5538 28.9285 14.8175C28.8748 15.0788 28.813 15.3693 28.743 15.689L28.3895 17.3585C28.3242 17.6712 28.2647 17.9558 28.211 18.2125C28.1573 18.4668 28.1013 18.7293 28.043 19H27.2205ZM31.9991 19C32.0575 18.7247 32.1135 18.461 32.1671 18.209C32.2208 17.9547 32.2815 17.67 32.3491 17.355L32.7026 15.689C32.7726 15.367 32.8345 15.0765 32.8881 14.8175C32.9441 14.5562 33.0013 14.2867 33.0596 14.009H33.8961C33.8378 14.2843 33.7806 14.5538 33.7246 14.8175C33.671 15.0788 33.6091 15.3693 33.5391 15.689L33.1856 17.355C33.118 17.67 33.0573 17.9547 33.0036 18.209C32.9523 18.461 32.8963 18.7247 32.8356 19H31.9991ZM34.0394 19C34.0978 18.727 34.1538 18.4633 34.2074 18.209C34.2611 17.9547 34.3206 17.6712 34.3859 17.3585L34.7394 15.689C34.8071 15.3647 34.8689 15.073 34.9249 14.814C34.9809 14.555 35.0381 14.2867 35.0964 14.009C35.2318 14.009 35.3869 14.009 35.5619 14.009C35.7393 14.009 35.9318 14.009 36.1394 14.009C36.3471 14.009 36.5676 14.009 36.8009 14.009C37.1906 14.009 37.5103 14.0708 37.7599 14.1945C38.0096 14.3182 38.1823 14.4955 38.2779 14.7265C38.3759 14.9575 38.3899 15.2352 38.3199 15.5595C38.2593 15.8465 38.1566 16.0915 38.0119 16.2945C37.8696 16.4952 37.6631 16.6492 37.3924 16.7565C37.1241 16.8615 36.7729 16.9128 36.3389 16.9105L36.6784 16.571L37.2244 17.5615C37.3084 17.7155 37.3983 17.8788 37.4939 18.0515C37.5896 18.2242 37.6818 18.3933 37.7704 18.559C37.8614 18.7247 37.9419 18.8717 38.0119 19H37.0914C36.9841 18.7947 36.8814 18.5975 36.7834 18.4085C36.6854 18.2195 36.5898 18.0317 36.4964 17.845L35.8734 16.634L36.2899 17.0785H35.0964L35.2399 16.41H36.2234C36.4731 16.41 36.6808 16.3855 36.8464 16.3365C37.0144 16.2852 37.1474 16.1977 37.2454 16.074C37.3434 15.9503 37.4169 15.7753 37.4659 15.549C37.5033 15.3717 37.5033 15.227 37.4659 15.115C37.4309 15.0007 37.3714 14.912 37.2874 14.849C37.2034 14.786 37.1054 14.7417 36.9934 14.716C36.8838 14.6903 36.7718 14.6775 36.6574 14.6775H35.2014L35.8734 14.135C35.8151 14.4103 35.7579 14.6775 35.7019 14.9365C35.6483 15.1955 35.5888 15.4802 35.5234 15.7905L35.1909 17.3585C35.1256 17.6712 35.0661 17.9547 35.0124 18.209C34.9588 18.461 34.9028 18.7247 34.8444 19H34.0394ZM38.7941 19C38.8524 18.7247 38.9084 18.461 38.9621 18.209C39.0157 17.9547 39.0764 17.67 39.1441 17.355L39.4976 15.689C39.5676 15.367 39.6294 15.0765 39.6831 14.8175C39.7391 14.5562 39.7962 14.2867 39.8546 14.009H40.6911C40.6327 14.2843 40.5756 14.5538 40.5196 14.8175C40.4659 15.0788 40.4041 15.3693 40.3341 15.689L39.9806 17.355C39.9129 17.67 39.8522 17.9547 39.7986 18.209C39.7472 18.461 39.6912 18.7247 39.6306 19H38.7941ZM40.8309 19C40.8892 18.727 40.9452 18.4633 40.9989 18.209C41.0525 17.9547 41.1132 17.6712 41.1809 17.3585L41.5344 15.689C41.6044 15.367 41.6662 15.0765 41.7199 14.8175C41.7759 14.5562 41.833 14.2867 41.8914 14.009H42.7174C42.659 14.289 42.6019 14.5597 42.5459 14.821C42.4899 15.08 42.428 15.3693 42.3604 15.689L42.0349 17.2255C41.9695 17.5382 41.9089 17.8217 41.8529 18.076C41.7992 18.3303 41.7432 18.5952 41.6849 18.8705L41.5204 18.2755H42.4584C42.715 18.2755 42.9414 18.2755 43.1374 18.2755C43.3357 18.2755 43.5189 18.2755 43.6869 18.2755C43.8549 18.2755 44.0264 18.2755 44.2014 18.2755L44.0474 19H40.8309ZM44.8572 19C44.9156 18.727 44.9716 18.4633 45.0252 18.209C45.0789 17.9547 45.1396 17.6712 45.2072 17.3585L45.5607 15.689C45.6307 15.367 45.6926 15.0765 45.7462 14.8175C45.8022 14.5562 45.8594 14.2867 45.9177 14.009H46.7437C46.6854 14.289 46.6282 14.5597 46.5722 14.821C46.5162 15.08 46.4544 15.3693 46.3867 15.689L46.0612 17.2255C45.9959 17.5382 45.9352 17.8217 45.8792 18.076C45.8256 18.3303 45.7696 18.5952 45.7112 18.8705L45.5467 18.2755H46.4847C46.7414 18.2755 46.9677 18.2755 47.1637 18.2755C47.3621 18.2755 47.5452 18.2755 47.7132 18.2755C47.8812 18.2755 48.0527 18.2755 48.2277 18.2755L48.0737 19H44.8572Z" fill="white"/>
<line x1="14" y1="4.5" x2="3" y2="4.5" stroke="white"/>
<line x1="14" y1="4.5" x2="3" y2="4.5" stroke="#328873"/>
<line x1="12" y1="4.5" x2="3" y2="4.5" stroke="#328873"/>
<line x1="9" y1="19.5" y2="19.5" stroke="#328873"/>
</svg>
