<svg width="68" height="30" viewBox="0 0 68 30" fill="none" xmlns="http://www.w3.org/2000/svg">
<path d="M26.848 11V6.68C26.848 6.44 26.8133 6.248 26.744 6.104C26.68 5.95467 26.528 5.88 26.288 5.88H26.128V5.72H28.224C29.28 5.72 30.0667 5.95467 30.584 6.424C31.1067 6.89333 31.368 7.528 31.368 8.328C31.368 8.84533 31.256 9.30667 31.032 9.712C30.8133 10.112 30.4853 10.4267 30.048 10.656C29.616 10.8853 29.0773 11 28.432 11H26.848ZM28.408 10.72C28.8027 10.72 29.1573 10.624 29.472 10.432C29.7867 10.24 30.0347 9.968 30.216 9.616C30.4027 9.25867 30.496 8.84 30.496 8.36C30.496 7.88533 30.4053 7.472 30.224 7.12C30.0427 6.768 29.7947 6.49333 29.48 6.296C29.1653 6.09867 28.8027 6 28.392 6C28.2747 6 28.1467 6.01067 28.008 6.032C27.8747 6.05333 27.736 6.08533 27.592 6.128V10.616C27.6987 10.6373 27.7973 10.656 27.888 10.672C27.984 10.688 28.0747 10.7013 28.16 10.712C28.2507 10.7173 28.3333 10.72 28.408 10.72ZM38.4468 11.36C38.0628 11.36 37.7614 11.2987 37.5428 11.176C37.3294 11.0587 37.1801 10.8747 37.0948 10.624C37.0094 10.368 36.9668 10.04 36.9668 9.64V6.56L34.9668 11H34.8068L32.7268 6.48V11H32.4068V5.72H33.1668L35.0868 9.88L36.9668 5.72H37.6868V9.64C37.6868 10.1253 37.7481 10.5067 37.8708 10.784C37.9934 11.0613 38.1854 11.2 38.4468 11.2V11.36ZM39.9164 11C39.7297 11 39.583 10.976 39.4764 10.928C39.375 10.88 39.303 10.7867 39.2604 10.648C39.2177 10.5093 39.1964 10.3067 39.1964 10.04V5.72H39.9164V10.04C39.9164 10.28 39.9484 10.4747 40.0124 10.624C40.0817 10.768 40.2364 10.84 40.4764 10.84H40.6364V11H39.9164ZM42.7668 11V6.04H42.0468C41.7268 6.04 41.4788 6.11467 41.3028 6.264C41.1321 6.408 41.0468 6.64 41.0468 6.96H40.8868V6.36C40.8868 6.25333 40.9054 6.152 40.9428 6.056C40.9801 5.95467 41.0468 5.87467 41.1428 5.816C41.2441 5.752 41.3854 5.72 41.5668 5.72H45.2868V6.04H43.4868V11H42.7668ZM49.7428 11.08C49.5615 11.08 49.3935 11.0453 49.2388 10.976C49.0895 10.9013 48.9401 10.7813 48.7908 10.616C48.6468 10.4453 48.4868 10.2133 48.3108 9.92L47.5108 8.56H46.9508V11H46.2308V6.68C46.2308 6.44 46.1961 6.248 46.1268 6.104C46.0628 5.95467 45.9108 5.88 45.6708 5.88H45.5108V5.72H47.5908C47.7241 5.72 47.8788 5.73067 48.0548 5.752C48.2308 5.768 48.4068 5.80267 48.5828 5.856C48.7641 5.90933 48.9295 5.98933 49.0788 6.096C49.2335 6.20267 49.3561 6.34133 49.4468 6.512C49.5428 6.68267 49.5908 6.896 49.5908 7.152C49.5908 7.456 49.5241 7.70133 49.3908 7.888C49.2628 8.06933 49.1001 8.208 48.9028 8.304C48.7055 8.4 48.5081 8.472 48.3108 8.52L49.1508 9.92C49.3535 10.2613 49.5348 10.496 49.6948 10.624C49.8548 10.7467 50.0335 10.8187 50.2308 10.84V11C50.1881 11.0213 50.1215 11.04 50.0308 11.056C49.9455 11.072 49.8495 11.08 49.7428 11.08ZM46.9508 8.28H47.5268C47.6441 8.28 47.7748 8.25867 47.9188 8.216C48.0628 8.17333 48.2015 8.10933 48.3348 8.024C48.4681 7.93333 48.5775 7.816 48.6628 7.672C48.7481 7.528 48.7908 7.352 48.7908 7.144C48.7908 6.936 48.7481 6.76 48.6628 6.616C48.5775 6.472 48.4681 6.35467 48.3348 6.264C48.2015 6.17333 48.0628 6.10667 47.9188 6.064C47.7748 6.02133 47.6441 6 47.5268 6C47.4415 6 47.3428 6.008 47.2308 6.024C47.1241 6.04 47.0308 6.05867 46.9508 6.08V8.28ZM51.5726 11C51.386 11 51.2393 10.976 51.1326 10.928C51.0313 10.88 50.9593 10.7867 50.9166 10.648C50.874 10.5093 50.8526 10.3067 50.8526 10.04V5.72H51.5726V10.04C51.5726 10.28 51.6046 10.4747 51.6686 10.624C51.738 10.768 51.8926 10.84 52.1326 10.84H52.2926V11H51.5726ZM53.2699 11V6.68C53.2699 6.44 53.2352 6.248 53.1659 6.104C53.1019 5.95467 52.9499 5.88 52.7099 5.88H52.5499V5.72H55.9579C56.1445 5.72 56.2859 5.752 56.3819 5.816C56.4779 5.87467 56.5445 5.95467 56.5819 6.056C56.6192 6.152 56.6379 6.25333 56.6379 6.36V6.96H56.4779C56.4779 6.64 56.3899 6.408 56.2139 6.264C56.0432 6.11467 55.7979 6.04 55.4779 6.04H53.9899V8.12H56.1499V8.44H53.9899V10.68H55.3899C55.7525 10.68 56.0379 10.6133 56.2459 10.48C56.4592 10.3467 56.6272 10.12 56.7499 9.8L56.9099 9.84L56.6299 10.6C56.5872 10.7227 56.5152 10.8213 56.4139 10.896C56.3179 10.9653 56.1899 11 56.0299 11H53.2699ZM59.6446 11.08L57.7886 6.656C57.6606 6.35733 57.538 6.14933 57.4206 6.032C57.3033 5.90933 57.1326 5.83733 56.9086 5.816V5.656C56.93 5.656 56.9726 5.65333 57.0366 5.648C57.0953 5.64267 57.1433 5.64 57.1806 5.64C57.314 5.64 57.4633 5.66133 57.6286 5.704C57.794 5.74667 57.9593 5.84 58.1246 5.984C58.2953 6.128 58.4446 6.352 58.5726 6.656L59.9406 9.88L61.7006 5.72H62.0846L59.7886 11.08H59.6446ZM30.968 21.08C30.824 21.08 30.6667 21.056 30.496 21.008C30.3253 20.96 30.1387 20.8667 29.936 20.728C29.7333 20.5893 29.504 20.3867 29.248 20.12L27.568 18.36V21H26.848V16.68C26.848 16.44 26.8133 16.248 26.744 16.104C26.68 15.9547 26.528 15.88 26.288 15.88H26.128V15.72H26.848C27.0347 15.72 27.1787 15.744 27.28 15.792C27.3867 15.84 27.4613 15.9333 27.504 16.072C27.5467 16.2107 27.568 16.4133 27.568 16.68V18.24L29.248 16.56C29.3813 16.4267 29.512 16.296 29.64 16.168C29.768 16.04 29.9067 15.9333 30.056 15.848C30.2107 15.7627 30.3947 15.72 30.608 15.72H31.008V15.92C30.7893 15.92 30.5947 15.96 30.424 16.04C30.2587 16.1147 30.0667 16.2613 29.848 16.48L28.288 18.04L30.128 19.96C30.2773 20.1093 30.4293 20.248 30.584 20.376C30.744 20.504 30.9013 20.6107 31.056 20.696C31.2107 20.776 31.3547 20.8267 31.488 20.848V21C31.4293 21.0213 31.3573 21.04 31.272 21.056C31.192 21.072 31.0907 21.08 30.968 21.08ZM32.8461 21C32.6594 21 32.5127 20.976 32.4061 20.928C32.3047 20.88 32.2327 20.7867 32.1901 20.648C32.1474 20.5093 32.1261 20.3067 32.1261 20.04V15.72H32.8461V20.04C32.8461 20.28 32.8781 20.4747 32.9421 20.624C33.0114 20.768 33.1661 20.84 33.4061 20.84H33.5661V21H32.8461ZM38.0553 21.08C37.874 21.08 37.706 21.0453 37.5513 20.976C37.402 20.9013 37.2526 20.7813 37.1033 20.616C36.9593 20.4453 36.7993 20.2133 36.6233 19.92L35.8233 18.56H35.2633V21H34.5433V16.68C34.5433 16.44 34.5086 16.248 34.4393 16.104C34.3753 15.9547 34.2233 15.88 33.9833 15.88H33.8233V15.72H35.9033C36.0366 15.72 36.1913 15.7307 36.3673 15.752C36.5433 15.768 36.7193 15.8027 36.8953 15.856C37.0766 15.9093 37.242 15.9893 37.3913 16.096C37.546 16.2027 37.6686 16.3413 37.7593 16.512C37.8553 16.6827 37.9033 16.896 37.9033 17.152C37.9033 17.456 37.8366 17.7013 37.7033 17.888C37.5753 18.0693 37.4126 18.208 37.2153 18.304C37.018 18.4 36.8206 18.472 36.6233 18.52L37.4633 19.92C37.666 20.2613 37.8473 20.496 38.0073 20.624C38.1673 20.7467 38.346 20.8187 38.5433 20.84V21C38.5006 21.0213 38.434 21.04 38.3433 21.056C38.258 21.072 38.162 21.08 38.0553 21.08ZM35.2633 18.28H35.8393C35.9566 18.28 36.0873 18.2587 36.2313 18.216C36.3753 18.1733 36.514 18.1093 36.6473 18.024C36.7806 17.9333 36.89 17.816 36.9753 17.672C37.0606 17.528 37.1033 17.352 37.1033 17.144C37.1033 16.936 37.0606 16.76 36.9753 16.616C36.89 16.472 36.7806 16.3547 36.6473 16.264C36.514 16.1733 36.3753 16.1067 36.2313 16.064C36.0873 16.0213 35.9566 16 35.8393 16C35.754 16 35.6553 16.008 35.5433 16.024C35.4366 16.04 35.3433 16.0587 35.2633 16.08V18.28ZM39.8851 21C39.6985 21 39.5518 20.976 39.4451 20.928C39.3438 20.88 39.2718 20.7867 39.2291 20.648C39.1865 20.5093 39.1651 20.3067 39.1651 20.04V15.72H39.8851V20.04C39.8851 20.28 39.9171 20.4747 39.9811 20.624C40.0505 20.768 40.2051 20.84 40.4451 20.84H40.6051V21H39.8851ZM41.5824 21V16.68C41.5824 16.44 41.5477 16.248 41.4784 16.104C41.4144 15.9547 41.2624 15.88 41.0224 15.88H40.8624V15.72H41.5824C41.769 15.72 41.913 15.744 42.0144 15.792C42.121 15.84 42.1957 15.9333 42.2384 16.072C42.281 16.2107 42.3024 16.4133 42.3024 16.68V20.68H45.1424V21H41.5824ZM45.8949 21V16.68C45.8949 16.44 45.8602 16.248 45.7909 16.104C45.7269 15.9547 45.5749 15.88 45.3349 15.88H45.1749V15.72H45.8949C46.0815 15.72 46.2255 15.744 46.3269 15.792C46.4335 15.84 46.5082 15.9333 46.5509 16.072C46.5935 16.2107 46.6149 16.4133 46.6149 16.68V20.68H49.4549V21H45.8949Z" fill="white"/>
<path d="M11 13C6.30827 13 2 19.5 2 21" stroke="#328873" stroke-width="2"/>
<path d="M2 4.6C2 9.46214 8.66667 12.065 12 13" stroke="#328873" stroke-width="2"/>
<path d="M7.528 5.28V4.608H12.4C15.744 4.624 17.536 4.656 17.776 4.704L18.064 4.776C19.552 5.096 20.832 5.88 21.904 7.128C23.024 8.44 23.704 10.032 23.944 11.904C24.008 12.432 24.016 13.032 23.968 13.704C23.952 13.768 23.944 13.816 23.944 13.848C23.72 15.832 22.968 17.48 21.688 18.792C20.568 19.96 19.208 20.672 17.608 20.928C17.4 20.96 15.664 20.984 12.4 21H7.528V20.328V19.656H8.2C9.32 19.656 9.912 19.6 9.976 19.488V6.12C9.912 6.008 9.32 5.952 8.2 5.952H7.528V5.28ZM16.72 6C16.608 5.984 15.976 5.968 14.824 5.952L13 5.976C12.84 5.992 12.744 6.032 12.712 6.096C12.68 6.128 12.664 8.368 12.664 12.816V19.464L12.712 19.512C12.776 19.592 13.128 19.632 13.768 19.632C13.928 19.632 14.24 19.632 14.704 19.632C16 19.632 16.832 19.592 17.2 19.512C17.232 19.496 17.28 19.48 17.344 19.464C18.224 19.256 18.96 18.84 19.552 18.216C20.336 17.4 20.8 16.176 20.944 14.544C20.992 13.92 21 13.024 20.968 11.856C20.952 11.056 20.872 10.368 20.728 9.792C20.312 7.92 19.224 6.712 17.464 6.168C17.224 6.104 16.976 6.048 16.72 6Z" fill="#328873"/>
</svg>
